M48
; DRILL file {KiCad (6.0.6)} date Mon Jul 25 14:20:29 2022
; FORMAT={-:-/ absolute / inch / decimal}
; #@! TF.CreationDate,2022-07-25T14:20:29+02:00
; #@! TF.GenerationSoftware,Kicad,Pcbnew,(6.0.6)
; #@! TF.FileFunction,Plated,1,2,PTH
FMAT,2
INCH
; #@! TA.AperFunction,Plated,PTH,ViaDrill
T1C0.0157
; #@! TA.AperFunction,Plated,PTH,ComponentDrill
T2C0.0374
; #@! TA.AperFunction,Plated,PTH,ComponentDrill
T3C0.0394
; #@! TA.AperFunction,Plated,PTH,ComponentDrill
T4C0.0433
%
G90
G05
T1
X4.7943Y-4.0305
X4.8031Y-4.5374
X4.8258Y-3.9734
X4.8268Y-4.4035
X4.8406Y-4.8307
X4.8563Y-4.2303
X4.8583Y-4.1781
X4.8593Y-4.1191
X4.8622Y-4.0
X4.8622Y-4.061
X4.8632Y-4.4232
X4.8642Y-3.9429
X4.8711Y-4.5384
X4.9321Y-4.5
X4.9419Y-4.4055
X4.9705Y-3.5039
X4.9705Y-3.6811
X4.9774Y-4.2293
X5.0187Y-4.2392
X5.0846Y-4.251
X5.1083Y-3.4252
X5.1181Y-4.7343
X5.1467Y-4.2648
X5.1575Y-3.376
X5.187Y-3.2972
X5.188Y-3.7687
X5.188Y-3.8553
X5.2067Y-4.6358
X5.2165Y-4.7343
X5.2264Y-3.4941
X5.2456Y-4.6658
X5.2608Y-3.3022
X5.2638Y-4.2382
X5.31Y-3.3514
X5.3425Y-4.2402
X5.3881Y-3.3521
X5.4094Y-4.1703
X5.4459Y-3.9026
X5.4459Y-3.9675
X5.4656Y-4.1073
X5.4843Y-4.001
X5.4862Y-3.9311
X5.565Y-3.3809
X5.5659Y-4.3406
X5.6102Y-3.7825
X5.6102Y-4.3898
X5.622Y-3.3819
X5.6555Y-3.7825
X5.6811Y-4.4646
X5.7057Y-3.7815
X5.7539Y-3.7805
X5.7677Y-4.5965
X5.8095Y-4.8406
X5.8179Y-3.6722
X5.876Y-4.5965
X5.8848Y-3.6476
X5.9114Y-4.2933
X5.9114Y-4.3553
X5.9154Y-4.5965
X5.9341Y-3.6476
X5.9724Y-3.9773
X6.0Y-3.813
X6.001Y-3.8789
X6.0236Y-5.0689
X6.0236Y-5.1181
X6.0339Y-3.3567
X6.063Y-3.8809
X6.064Y-3.9272
X6.0728Y-4.5965
X6.122Y-3.9193
X6.122Y-4.5965
X6.1614Y-3.5728
X6.1614Y-3.6417
X6.1614Y-4.8524
X6.1614Y-5.0679
X6.1827Y-5.101
X6.2992Y-3.5728
X6.437Y-4.813
X6.4587Y-3.7668
X6.4665Y-4.7638
X6.5551Y-3.376
X6.5886Y-4.4675
X6.5896Y-4.4124
X6.59Y-4.5262
X6.59Y-4.5821
X6.5945Y-4.8524
X6.6535Y-3.5728
X6.6535Y-3.8947
X6.7077Y-4.2864
X6.7815Y-3.7303
X6.7815Y-4.8622
X6.8602Y-4.439
X6.8652Y-4.1191
X6.8898Y-3.4646
X6.8898Y-3.6122
X6.8898Y-3.7598
X6.8996Y-4.6063
X6.9026Y-4.4813
X6.9045Y-4.9065
X6.9065Y-4.0778
T2
X4.8622Y-5.1083
X4.9606Y-5.1083
X5.0591Y-5.1083
X5.1575Y-5.1083
X5.2559Y-5.1083
X5.3543Y-5.1083
X5.4528Y-5.1083
X5.5512Y-5.1083
X5.6496Y-5.1083
X6.3091Y-3.1988
X6.4075Y-3.1988
X6.5059Y-3.1988
T3
X5.0169Y-4.5276
X5.1169Y-4.5276
X5.2169Y-4.5276
X5.3169Y-4.5276
X5.4169Y-4.5276
X5.4823Y-3.235
X5.4823Y-3.335
X5.4823Y-3.435
X5.5169Y-4.5276
X5.6169Y-4.5276
X5.6988Y-3.1978
X5.7169Y-4.5276
X5.7972Y-3.1978
X5.8169Y-4.5276
X6.397Y-4.8896
X6.397Y-4.9896
X6.397Y-5.0896
X6.497Y-4.8896
X6.497Y-4.9896
X6.497Y-5.0896
T4
X4.9705Y-3.2776
X5.1083Y-3.2776
T0
M30
