G04 #@! TF.GenerationSoftware,KiCad,Pcbnew,(6.0.6)*
G04 #@! TF.CreationDate,2022-07-25T14:05:36+02:00*
G04 #@! TF.ProjectId,UniversalControlPanel,556e6976-6572-4736-916c-436f6e74726f,rev?*
G04 #@! TF.SameCoordinates,Original*
G04 #@! TF.FileFunction,Legend,Top*
G04 #@! TF.FilePolarity,Positive*
%FSLAX46Y46*%
G04 Gerber Fmt 4.6, Leading zero omitted, Abs format (unit mm)*
G04 Created by KiCad (PCBNEW (6.0.6)) date 2022-07-25 14:05:36*
%MOMM*%
%LPD*%
G01*
G04 APERTURE LIST*
G04 Aperture macros list*
%AMRoundRect*
0 Rectangle with rounded corners*
0 $1 Rounding radius*
0 $2 $3 $4 $5 $6 $7 $8 $9 X,Y pos of 4 corners*
0 Add a 4 corners polygon primitive as box body*
4,1,4,$2,$3,$4,$5,$6,$7,$8,$9,$2,$3,0*
0 Add four circle primitives for the rounded corners*
1,1,$1+$1,$2,$3*
1,1,$1+$1,$4,$5*
1,1,$1+$1,$6,$7*
1,1,$1+$1,$8,$9*
0 Add four rect primitives between the rounded corners*
20,1,$1+$1,$2,$3,$4,$5,0*
20,1,$1+$1,$4,$5,$6,$7,0*
20,1,$1+$1,$6,$7,$8,$9,0*
20,1,$1+$1,$8,$9,$2,$3,0*%
%AMFreePoly0*
4,1,22,0.500000,-0.750000,0.000000,-0.750000,0.000000,-0.745033,-0.079941,-0.743568,-0.215256,-0.701293,-0.333266,-0.622738,-0.424486,-0.514219,-0.481581,-0.384460,-0.499164,-0.250000,-0.500000,-0.250000,-0.500000,0.250000,-0.499164,0.250000,-0.499963,0.256109,-0.478152,0.396186,-0.417904,0.524511,-0.324060,0.630769,-0.204165,0.706417,-0.067858,0.745374,0.000000,0.744959,0.000000,0.750000,
0.500000,0.750000,0.500000,-0.750000,0.500000,-0.750000,$1*%
%AMFreePoly1*
4,1,20,0.000000,0.744959,0.073905,0.744508,0.209726,0.703889,0.328688,0.626782,0.421226,0.519385,0.479903,0.390333,0.500000,0.250000,0.500000,-0.250000,0.499851,-0.262216,0.476331,-0.402017,0.414519,-0.529596,0.319384,-0.634700,0.198574,-0.708877,0.061801,-0.746166,0.000000,-0.745033,0.000000,-0.750000,-0.500000,-0.750000,-0.500000,0.750000,0.000000,0.750000,0.000000,0.744959,
0.000000,0.744959,$1*%
%AMFreePoly2*
4,1,9,3.862500,-0.866500,0.737500,-0.866500,0.737500,-0.450000,-0.737500,-0.450000,-0.737500,0.450000,0.737500,0.450000,0.737500,0.866500,3.862500,0.866500,3.862500,-0.866500,3.862500,-0.866500,$1*%
G04 Aperture macros list end*
%ADD10C,0.402076*%
%ADD11C,0.254000*%
%ADD12C,0.150000*%
%ADD13C,0.120000*%
%ADD14C,0.100000*%
%ADD15C,0.200000*%
%ADD16R,1.650000X1.650000*%
%ADD17C,1.650000*%
%ADD18RoundRect,0.135000X-0.185000X0.135000X-0.185000X-0.135000X0.185000X-0.135000X0.185000X0.135000X0*%
%ADD19RoundRect,0.135000X-0.135000X-0.185000X0.135000X-0.185000X0.135000X0.185000X-0.135000X0.185000X0*%
%ADD20RoundRect,0.250000X-0.350000X-0.450000X0.350000X-0.450000X0.350000X0.450000X-0.350000X0.450000X0*%
%ADD21RoundRect,0.135000X0.135000X0.185000X-0.135000X0.185000X-0.135000X-0.185000X0.135000X-0.185000X0*%
%ADD22C,3.500000*%
%ADD23RoundRect,0.140000X0.170000X-0.140000X0.170000X0.140000X-0.170000X0.140000X-0.170000X-0.140000X0*%
%ADD24RoundRect,0.250000X-0.712500X-2.475000X0.712500X-2.475000X0.712500X2.475000X-0.712500X2.475000X0*%
%ADD25FreePoly0,180.000000*%
%ADD26FreePoly1,180.000000*%
%ADD27RoundRect,0.135000X0.185000X-0.135000X0.185000X0.135000X-0.185000X0.135000X-0.185000X-0.135000X0*%
%ADD28R,2.500000X1.500000*%
%ADD29O,2.500000X1.500000*%
%ADD30R,1.300000X0.300000*%
%ADD31R,2.200000X1.800000*%
%ADD32RoundRect,0.150000X0.587500X0.150000X-0.587500X0.150000X-0.587500X-0.150000X0.587500X-0.150000X0*%
%ADD33RoundRect,0.140000X-0.170000X0.140000X-0.170000X-0.140000X0.170000X-0.140000X0.170000X0.140000X0*%
%ADD34R,1.300000X0.900000*%
%ADD35FreePoly2,180.000000*%
%ADD36RoundRect,0.150000X0.150000X-0.825000X0.150000X0.825000X-0.150000X0.825000X-0.150000X-0.825000X0*%
%ADD37RoundRect,0.250000X-0.325000X-0.650000X0.325000X-0.650000X0.325000X0.650000X-0.325000X0.650000X0*%
%ADD38R,1.700000X1.700000*%
%ADD39O,1.700000X1.700000*%
%ADD40R,0.900000X1.500000*%
%ADD41R,1.500000X0.900000*%
%ADD42R,4.100000X4.100000*%
%ADD43RoundRect,0.250000X-0.600000X-0.750000X0.600000X-0.750000X0.600000X0.750000X-0.600000X0.750000X0*%
%ADD44O,1.700000X2.000000*%
%ADD45R,1.000000X0.750000*%
%ADD46RoundRect,0.250000X0.325000X0.650000X-0.325000X0.650000X-0.325000X-0.650000X0.325000X-0.650000X0*%
%ADD47RoundRect,0.140000X0.140000X0.170000X-0.140000X0.170000X-0.140000X-0.170000X0.140000X-0.170000X0*%
%ADD48R,1.200000X0.900000*%
%ADD49RoundRect,0.150000X-0.587500X-0.150000X0.587500X-0.150000X0.587500X0.150000X-0.587500X0.150000X0*%
%ADD50RoundRect,0.250000X-0.600000X-0.725000X0.600000X-0.725000X0.600000X0.725000X-0.600000X0.725000X0*%
%ADD51O,1.700000X1.950000*%
%ADD52RoundRect,0.250000X0.600000X0.725000X-0.600000X0.725000X-0.600000X-0.725000X0.600000X-0.725000X0*%
%ADD53RoundRect,0.218750X-0.256250X0.218750X-0.256250X-0.218750X0.256250X-0.218750X0.256250X0.218750X0*%
%ADD54RoundRect,0.140000X-0.140000X-0.170000X0.140000X-0.170000X0.140000X0.170000X-0.140000X0.170000X0*%
G04 APERTURE END LIST*
D10*
X150501038Y-122300000D02*
G75*
G03*
X150501038Y-122300000I-201038J0D01*
G01*
X159476038Y-122900000D02*
G75*
G03*
X159476038Y-122900000I-201038J0D01*
G01*
X152851038Y-89000000D02*
G75*
G03*
X152851038Y-89000000I-201038J0D01*
G01*
X162326038Y-96225000D02*
G75*
G03*
X162326038Y-96225000I-201038J0D01*
G01*
D11*
X125221904Y-82554523D02*
X125221904Y-83461666D01*
X125161428Y-83643095D01*
X125040476Y-83764047D01*
X124859047Y-83824523D01*
X124738095Y-83824523D01*
X126491904Y-83824523D02*
X125766190Y-83824523D01*
X126129047Y-83824523D02*
X126129047Y-82554523D01*
X126008095Y-82735952D01*
X125887142Y-82856904D01*
X125766190Y-82917380D01*
X127278095Y-82554523D02*
X127399047Y-82554523D01*
X127520000Y-82615000D01*
X127580476Y-82675476D01*
X127640952Y-82796428D01*
X127701428Y-83038333D01*
X127701428Y-83340714D01*
X127640952Y-83582619D01*
X127580476Y-83703571D01*
X127520000Y-83764047D01*
X127399047Y-83824523D01*
X127278095Y-83824523D01*
X127157142Y-83764047D01*
X127096666Y-83703571D01*
X127036190Y-83582619D01*
X126975714Y-83340714D01*
X126975714Y-83038333D01*
X127036190Y-82796428D01*
X127096666Y-82675476D01*
X127157142Y-82615000D01*
X127278095Y-82554523D01*
D12*
X167702380Y-97391666D02*
X167226190Y-97725000D01*
X167702380Y-97963095D02*
X166702380Y-97963095D01*
X166702380Y-97582142D01*
X166750000Y-97486904D01*
X166797619Y-97439285D01*
X166892857Y-97391666D01*
X167035714Y-97391666D01*
X167130952Y-97439285D01*
X167178571Y-97486904D01*
X167226190Y-97582142D01*
X167226190Y-97963095D01*
X166797619Y-97010714D02*
X166750000Y-96963095D01*
X166702380Y-96867857D01*
X166702380Y-96629761D01*
X166750000Y-96534523D01*
X166797619Y-96486904D01*
X166892857Y-96439285D01*
X166988095Y-96439285D01*
X167130952Y-96486904D01*
X167702380Y-97058333D01*
X167702380Y-96439285D01*
X160702380Y-130142857D02*
X160226190Y-130476190D01*
X160702380Y-130714285D02*
X159702380Y-130714285D01*
X159702380Y-130333333D01*
X159750000Y-130238095D01*
X159797619Y-130190476D01*
X159892857Y-130142857D01*
X160035714Y-130142857D01*
X160130952Y-130190476D01*
X160178571Y-130238095D01*
X160226190Y-130333333D01*
X160226190Y-130714285D01*
X159797619Y-129761904D02*
X159750000Y-129714285D01*
X159702380Y-129619047D01*
X159702380Y-129380952D01*
X159750000Y-129285714D01*
X159797619Y-129238095D01*
X159892857Y-129190476D01*
X159988095Y-129190476D01*
X160130952Y-129238095D01*
X160702380Y-129809523D01*
X160702380Y-129190476D01*
X159702380Y-128571428D02*
X159702380Y-128476190D01*
X159750000Y-128380952D01*
X159797619Y-128333333D01*
X159892857Y-128285714D01*
X160083333Y-128238095D01*
X160321428Y-128238095D01*
X160511904Y-128285714D01*
X160607142Y-128333333D01*
X160654761Y-128380952D01*
X160702380Y-128476190D01*
X160702380Y-128571428D01*
X160654761Y-128666666D01*
X160607142Y-128714285D01*
X160511904Y-128761904D01*
X160321428Y-128809523D01*
X160083333Y-128809523D01*
X159892857Y-128761904D01*
X159797619Y-128714285D01*
X159750000Y-128666666D01*
X159702380Y-128571428D01*
X155857142Y-129416666D02*
X155904761Y-129464285D01*
X155952380Y-129607142D01*
X155952380Y-129702380D01*
X155904761Y-129845238D01*
X155809523Y-129940476D01*
X155714285Y-129988095D01*
X155523809Y-130035714D01*
X155380952Y-130035714D01*
X155190476Y-129988095D01*
X155095238Y-129940476D01*
X155000000Y-129845238D01*
X154952380Y-129702380D01*
X154952380Y-129607142D01*
X155000000Y-129464285D01*
X155047619Y-129416666D01*
X155380952Y-128845238D02*
X155333333Y-128940476D01*
X155285714Y-128988095D01*
X155190476Y-129035714D01*
X155142857Y-129035714D01*
X155047619Y-128988095D01*
X155000000Y-128940476D01*
X154952380Y-128845238D01*
X154952380Y-128654761D01*
X155000000Y-128559523D01*
X155047619Y-128511904D01*
X155142857Y-128464285D01*
X155190476Y-128464285D01*
X155285714Y-128511904D01*
X155333333Y-128559523D01*
X155380952Y-128654761D01*
X155380952Y-128845238D01*
X155428571Y-128940476D01*
X155476190Y-128988095D01*
X155571428Y-129035714D01*
X155761904Y-129035714D01*
X155857142Y-128988095D01*
X155904761Y-128940476D01*
X155952380Y-128845238D01*
X155952380Y-128654761D01*
X155904761Y-128559523D01*
X155857142Y-128511904D01*
X155761904Y-128464285D01*
X155571428Y-128464285D01*
X155476190Y-128511904D01*
X155428571Y-128559523D01*
X155380952Y-128654761D01*
X119916666Y-88928571D02*
X119583333Y-88928571D01*
X119583333Y-89452380D02*
X119583333Y-88452380D01*
X120059523Y-88452380D01*
X120964285Y-89452380D02*
X120392857Y-89452380D01*
X120678571Y-89452380D02*
X120678571Y-88452380D01*
X120583333Y-88595238D01*
X120488095Y-88690476D01*
X120392857Y-88738095D01*
X129282380Y-125142857D02*
X128806190Y-125476190D01*
X129282380Y-125714285D02*
X128282380Y-125714285D01*
X128282380Y-125333333D01*
X128330000Y-125238095D01*
X128377619Y-125190476D01*
X128472857Y-125142857D01*
X128615714Y-125142857D01*
X128710952Y-125190476D01*
X128758571Y-125238095D01*
X128806190Y-125333333D01*
X128806190Y-125714285D01*
X128377619Y-124761904D02*
X128330000Y-124714285D01*
X128282380Y-124619047D01*
X128282380Y-124380952D01*
X128330000Y-124285714D01*
X128377619Y-124238095D01*
X128472857Y-124190476D01*
X128568095Y-124190476D01*
X128710952Y-124238095D01*
X129282380Y-124809523D01*
X129282380Y-124190476D01*
X129282380Y-123238095D02*
X129282380Y-123809523D01*
X129282380Y-123523809D02*
X128282380Y-123523809D01*
X128425238Y-123619047D01*
X128520476Y-123714285D01*
X128568095Y-123809523D01*
X160583333Y-87452380D02*
X160250000Y-86976190D01*
X160011904Y-87452380D02*
X160011904Y-86452380D01*
X160392857Y-86452380D01*
X160488095Y-86500000D01*
X160535714Y-86547619D01*
X160583333Y-86642857D01*
X160583333Y-86785714D01*
X160535714Y-86880952D01*
X160488095Y-86928571D01*
X160392857Y-86976190D01*
X160011904Y-86976190D01*
X161154761Y-86880952D02*
X161059523Y-86833333D01*
X161011904Y-86785714D01*
X160964285Y-86690476D01*
X160964285Y-86642857D01*
X161011904Y-86547619D01*
X161059523Y-86500000D01*
X161154761Y-86452380D01*
X161345238Y-86452380D01*
X161440476Y-86500000D01*
X161488095Y-86547619D01*
X161535714Y-86642857D01*
X161535714Y-86690476D01*
X161488095Y-86785714D01*
X161440476Y-86833333D01*
X161345238Y-86880952D01*
X161154761Y-86880952D01*
X161059523Y-86928571D01*
X161011904Y-86976190D01*
X160964285Y-87071428D01*
X160964285Y-87261904D01*
X161011904Y-87357142D01*
X161059523Y-87404761D01*
X161154761Y-87452380D01*
X161345238Y-87452380D01*
X161440476Y-87404761D01*
X161488095Y-87357142D01*
X161535714Y-87261904D01*
X161535714Y-87071428D01*
X161488095Y-86976190D01*
X161440476Y-86928571D01*
X161345238Y-86880952D01*
X131238095Y-88202380D02*
X131238095Y-89011904D01*
X131285714Y-89107142D01*
X131333333Y-89154761D01*
X131428571Y-89202380D01*
X131619047Y-89202380D01*
X131714285Y-89154761D01*
X131761904Y-89107142D01*
X131809523Y-89011904D01*
X131809523Y-88202380D01*
X132809523Y-89202380D02*
X132238095Y-89202380D01*
X132523809Y-89202380D02*
X132523809Y-88202380D01*
X132428571Y-88345238D01*
X132333333Y-88440476D01*
X132238095Y-88488095D01*
X121602380Y-104408333D02*
X122316666Y-104408333D01*
X122459523Y-104455952D01*
X122554761Y-104551190D01*
X122602380Y-104694047D01*
X122602380Y-104789285D01*
X121602380Y-104027380D02*
X121602380Y-103408333D01*
X121983333Y-103741666D01*
X121983333Y-103598809D01*
X122030952Y-103503571D01*
X122078571Y-103455952D01*
X122173809Y-103408333D01*
X122411904Y-103408333D01*
X122507142Y-103455952D01*
X122554761Y-103503571D01*
X122602380Y-103598809D01*
X122602380Y-103884523D01*
X122554761Y-103979761D01*
X122507142Y-104027380D01*
X136532142Y-95517857D02*
X136579761Y-95565476D01*
X136627380Y-95708333D01*
X136627380Y-95803571D01*
X136579761Y-95946428D01*
X136484523Y-96041666D01*
X136389285Y-96089285D01*
X136198809Y-96136904D01*
X136055952Y-96136904D01*
X135865476Y-96089285D01*
X135770238Y-96041666D01*
X135675000Y-95946428D01*
X135627380Y-95803571D01*
X135627380Y-95708333D01*
X135675000Y-95565476D01*
X135722619Y-95517857D01*
X136627380Y-94565476D02*
X136627380Y-95136904D01*
X136627380Y-94851190D02*
X135627380Y-94851190D01*
X135770238Y-94946428D01*
X135865476Y-95041666D01*
X135913095Y-95136904D01*
X136627380Y-93613095D02*
X136627380Y-94184523D01*
X136627380Y-93898809D02*
X135627380Y-93898809D01*
X135770238Y-93994047D01*
X135865476Y-94089285D01*
X135913095Y-94184523D01*
X130054761Y-96097619D02*
X129959523Y-96050000D01*
X129864285Y-95954761D01*
X129721428Y-95811904D01*
X129626190Y-95764285D01*
X129530952Y-95764285D01*
X129578571Y-96002380D02*
X129483333Y-95954761D01*
X129388095Y-95859523D01*
X129340476Y-95669047D01*
X129340476Y-95335714D01*
X129388095Y-95145238D01*
X129483333Y-95050000D01*
X129578571Y-95002380D01*
X129769047Y-95002380D01*
X129864285Y-95050000D01*
X129959523Y-95145238D01*
X130007142Y-95335714D01*
X130007142Y-95669047D01*
X129959523Y-95859523D01*
X129864285Y-95954761D01*
X129769047Y-96002380D01*
X129578571Y-96002380D01*
X130340476Y-95002380D02*
X130959523Y-95002380D01*
X130626190Y-95383333D01*
X130769047Y-95383333D01*
X130864285Y-95430952D01*
X130911904Y-95478571D01*
X130959523Y-95573809D01*
X130959523Y-95811904D01*
X130911904Y-95907142D01*
X130864285Y-95954761D01*
X130769047Y-96002380D01*
X130483333Y-96002380D01*
X130388095Y-95954761D01*
X130340476Y-95907142D01*
X148357142Y-131416666D02*
X148404761Y-131464285D01*
X148452380Y-131607142D01*
X148452380Y-131702380D01*
X148404761Y-131845238D01*
X148309523Y-131940476D01*
X148214285Y-131988095D01*
X148023809Y-132035714D01*
X147880952Y-132035714D01*
X147690476Y-131988095D01*
X147595238Y-131940476D01*
X147500000Y-131845238D01*
X147452380Y-131702380D01*
X147452380Y-131607142D01*
X147500000Y-131464285D01*
X147547619Y-131416666D01*
X148452380Y-130464285D02*
X148452380Y-131035714D01*
X148452380Y-130750000D02*
X147452380Y-130750000D01*
X147595238Y-130845238D01*
X147690476Y-130940476D01*
X147738095Y-131035714D01*
X153916666Y-91952380D02*
X153916666Y-92666666D01*
X153869047Y-92809523D01*
X153773809Y-92904761D01*
X153630952Y-92952380D01*
X153535714Y-92952380D01*
X154392857Y-92952380D02*
X154392857Y-91952380D01*
X154773809Y-91952380D01*
X154869047Y-92000000D01*
X154916666Y-92047619D01*
X154964285Y-92142857D01*
X154964285Y-92285714D01*
X154916666Y-92380952D01*
X154869047Y-92428571D01*
X154773809Y-92476190D01*
X154392857Y-92476190D01*
X155297619Y-91952380D02*
X155916666Y-91952380D01*
X155583333Y-92333333D01*
X155726190Y-92333333D01*
X155821428Y-92380952D01*
X155869047Y-92428571D01*
X155916666Y-92523809D01*
X155916666Y-92761904D01*
X155869047Y-92857142D01*
X155821428Y-92904761D01*
X155726190Y-92952380D01*
X155440476Y-92952380D01*
X155345238Y-92904761D01*
X155297619Y-92857142D01*
X169202380Y-97391666D02*
X168726190Y-97725000D01*
X169202380Y-97963095D02*
X168202380Y-97963095D01*
X168202380Y-97582142D01*
X168250000Y-97486904D01*
X168297619Y-97439285D01*
X168392857Y-97391666D01*
X168535714Y-97391666D01*
X168630952Y-97439285D01*
X168678571Y-97486904D01*
X168726190Y-97582142D01*
X168726190Y-97963095D01*
X168202380Y-97058333D02*
X168202380Y-96439285D01*
X168583333Y-96772619D01*
X168583333Y-96629761D01*
X168630952Y-96534523D01*
X168678571Y-96486904D01*
X168773809Y-96439285D01*
X169011904Y-96439285D01*
X169107142Y-96486904D01*
X169154761Y-96534523D01*
X169202380Y-96629761D01*
X169202380Y-96915476D01*
X169154761Y-97010714D01*
X169107142Y-97058333D01*
X138238095Y-99527380D02*
X138238095Y-100336904D01*
X138285714Y-100432142D01*
X138333333Y-100479761D01*
X138428571Y-100527380D01*
X138619047Y-100527380D01*
X138714285Y-100479761D01*
X138761904Y-100432142D01*
X138809523Y-100336904D01*
X138809523Y-99527380D01*
X139190476Y-99527380D02*
X139809523Y-99527380D01*
X139476190Y-99908333D01*
X139619047Y-99908333D01*
X139714285Y-99955952D01*
X139761904Y-100003571D01*
X139809523Y-100098809D01*
X139809523Y-100336904D01*
X139761904Y-100432142D01*
X139714285Y-100479761D01*
X139619047Y-100527380D01*
X139333333Y-100527380D01*
X139238095Y-100479761D01*
X139190476Y-100432142D01*
X159107142Y-127202380D02*
X158773809Y-126726190D01*
X158535714Y-127202380D02*
X158535714Y-126202380D01*
X158916666Y-126202380D01*
X159011904Y-126250000D01*
X159059523Y-126297619D01*
X159107142Y-126392857D01*
X159107142Y-126535714D01*
X159059523Y-126630952D01*
X159011904Y-126678571D01*
X158916666Y-126726190D01*
X158535714Y-126726190D01*
X160059523Y-127202380D02*
X159488095Y-127202380D01*
X159773809Y-127202380D02*
X159773809Y-126202380D01*
X159678571Y-126345238D01*
X159583333Y-126440476D01*
X159488095Y-126488095D01*
X160916666Y-126535714D02*
X160916666Y-127202380D01*
X160678571Y-126154761D02*
X160440476Y-126869047D01*
X161059523Y-126869047D01*
X166988095Y-91452380D02*
X166988095Y-92261904D01*
X167035714Y-92357142D01*
X167083333Y-92404761D01*
X167178571Y-92452380D01*
X167369047Y-92452380D01*
X167464285Y-92404761D01*
X167511904Y-92357142D01*
X167559523Y-92261904D01*
X167559523Y-91452380D01*
X167988095Y-91547619D02*
X168035714Y-91500000D01*
X168130952Y-91452380D01*
X168369047Y-91452380D01*
X168464285Y-91500000D01*
X168511904Y-91547619D01*
X168559523Y-91642857D01*
X168559523Y-91738095D01*
X168511904Y-91880952D01*
X167940476Y-92452380D01*
X168559523Y-92452380D01*
X173458333Y-95982142D02*
X173410714Y-96029761D01*
X173267857Y-96077380D01*
X173172619Y-96077380D01*
X173029761Y-96029761D01*
X172934523Y-95934523D01*
X172886904Y-95839285D01*
X172839285Y-95648809D01*
X172839285Y-95505952D01*
X172886904Y-95315476D01*
X172934523Y-95220238D01*
X173029761Y-95125000D01*
X173172619Y-95077380D01*
X173267857Y-95077380D01*
X173410714Y-95125000D01*
X173458333Y-95172619D01*
X174363095Y-95077380D02*
X173886904Y-95077380D01*
X173839285Y-95553571D01*
X173886904Y-95505952D01*
X173982142Y-95458333D01*
X174220238Y-95458333D01*
X174315476Y-95505952D01*
X174363095Y-95553571D01*
X174410714Y-95648809D01*
X174410714Y-95886904D01*
X174363095Y-95982142D01*
X174315476Y-96029761D01*
X174220238Y-96077380D01*
X173982142Y-96077380D01*
X173886904Y-96029761D01*
X173839285Y-95982142D01*
X141154761Y-123547619D02*
X141059523Y-123500000D01*
X140964285Y-123404761D01*
X140821428Y-123261904D01*
X140726190Y-123214285D01*
X140630952Y-123214285D01*
X140678571Y-123452380D02*
X140583333Y-123404761D01*
X140488095Y-123309523D01*
X140440476Y-123119047D01*
X140440476Y-122785714D01*
X140488095Y-122595238D01*
X140583333Y-122500000D01*
X140678571Y-122452380D01*
X140869047Y-122452380D01*
X140964285Y-122500000D01*
X141059523Y-122595238D01*
X141107142Y-122785714D01*
X141107142Y-123119047D01*
X141059523Y-123309523D01*
X140964285Y-123404761D01*
X140869047Y-123452380D01*
X140678571Y-123452380D01*
X141488095Y-122547619D02*
X141535714Y-122500000D01*
X141630952Y-122452380D01*
X141869047Y-122452380D01*
X141964285Y-122500000D01*
X142011904Y-122547619D01*
X142059523Y-122642857D01*
X142059523Y-122738095D01*
X142011904Y-122880952D01*
X141440476Y-123452380D01*
X142059523Y-123452380D01*
X154357142Y-132372380D02*
X154023809Y-131896190D01*
X153785714Y-132372380D02*
X153785714Y-131372380D01*
X154166666Y-131372380D01*
X154261904Y-131420000D01*
X154309523Y-131467619D01*
X154357142Y-131562857D01*
X154357142Y-131705714D01*
X154309523Y-131800952D01*
X154261904Y-131848571D01*
X154166666Y-131896190D01*
X153785714Y-131896190D01*
X155309523Y-132372380D02*
X154738095Y-132372380D01*
X155023809Y-132372380D02*
X155023809Y-131372380D01*
X154928571Y-131515238D01*
X154833333Y-131610476D01*
X154738095Y-131658095D01*
X155880952Y-131800952D02*
X155785714Y-131753333D01*
X155738095Y-131705714D01*
X155690476Y-131610476D01*
X155690476Y-131562857D01*
X155738095Y-131467619D01*
X155785714Y-131420000D01*
X155880952Y-131372380D01*
X156071428Y-131372380D01*
X156166666Y-131420000D01*
X156214285Y-131467619D01*
X156261904Y-131562857D01*
X156261904Y-131610476D01*
X156214285Y-131705714D01*
X156166666Y-131753333D01*
X156071428Y-131800952D01*
X155880952Y-131800952D01*
X155785714Y-131848571D01*
X155738095Y-131896190D01*
X155690476Y-131991428D01*
X155690476Y-132181904D01*
X155738095Y-132277142D01*
X155785714Y-132324761D01*
X155880952Y-132372380D01*
X156071428Y-132372380D01*
X156166666Y-132324761D01*
X156214285Y-132277142D01*
X156261904Y-132181904D01*
X156261904Y-131991428D01*
X156214285Y-131896190D01*
X156166666Y-131848571D01*
X156071428Y-131800952D01*
X177702380Y-123166666D02*
X177226190Y-123500000D01*
X177702380Y-123738095D02*
X176702380Y-123738095D01*
X176702380Y-123357142D01*
X176750000Y-123261904D01*
X176797619Y-123214285D01*
X176892857Y-123166666D01*
X177035714Y-123166666D01*
X177130952Y-123214285D01*
X177178571Y-123261904D01*
X177226190Y-123357142D01*
X177226190Y-123738095D01*
X177702380Y-122214285D02*
X177702380Y-122785714D01*
X177702380Y-122500000D02*
X176702380Y-122500000D01*
X176845238Y-122595238D01*
X176940476Y-122690476D01*
X176988095Y-122785714D01*
X153654761Y-127697619D02*
X153559523Y-127650000D01*
X153464285Y-127554761D01*
X153321428Y-127411904D01*
X153226190Y-127364285D01*
X153130952Y-127364285D01*
X153178571Y-127602380D02*
X153083333Y-127554761D01*
X152988095Y-127459523D01*
X152940476Y-127269047D01*
X152940476Y-126935714D01*
X152988095Y-126745238D01*
X153083333Y-126650000D01*
X153178571Y-126602380D01*
X153369047Y-126602380D01*
X153464285Y-126650000D01*
X153559523Y-126745238D01*
X153607142Y-126935714D01*
X153607142Y-127269047D01*
X153559523Y-127459523D01*
X153464285Y-127554761D01*
X153369047Y-127602380D01*
X153178571Y-127602380D01*
X154559523Y-127602380D02*
X153988095Y-127602380D01*
X154273809Y-127602380D02*
X154273809Y-126602380D01*
X154178571Y-126745238D01*
X154083333Y-126840476D01*
X153988095Y-126888095D01*
X149532380Y-115333333D02*
X150246666Y-115333333D01*
X150389523Y-115380952D01*
X150484761Y-115476190D01*
X150532380Y-115619047D01*
X150532380Y-115714285D01*
X149627619Y-114904761D02*
X149580000Y-114857142D01*
X149532380Y-114761904D01*
X149532380Y-114523809D01*
X149580000Y-114428571D01*
X149627619Y-114380952D01*
X149722857Y-114333333D01*
X149818095Y-114333333D01*
X149960952Y-114380952D01*
X150532380Y-114952380D01*
X150532380Y-114333333D01*
X148988095Y-100952380D02*
X148988095Y-101761904D01*
X149035714Y-101857142D01*
X149083333Y-101904761D01*
X149178571Y-101952380D01*
X149369047Y-101952380D01*
X149464285Y-101904761D01*
X149511904Y-101857142D01*
X149559523Y-101761904D01*
X149559523Y-100952380D01*
X150464285Y-100952380D02*
X150273809Y-100952380D01*
X150178571Y-101000000D01*
X150130952Y-101047619D01*
X150035714Y-101190476D01*
X149988095Y-101380952D01*
X149988095Y-101761904D01*
X150035714Y-101857142D01*
X150083333Y-101904761D01*
X150178571Y-101952380D01*
X150369047Y-101952380D01*
X150464285Y-101904761D01*
X150511904Y-101857142D01*
X150559523Y-101761904D01*
X150559523Y-101523809D01*
X150511904Y-101428571D01*
X150464285Y-101380952D01*
X150369047Y-101333333D01*
X150178571Y-101333333D01*
X150083333Y-101380952D01*
X150035714Y-101428571D01*
X149988095Y-101523809D01*
X148916666Y-85452380D02*
X148916666Y-86166666D01*
X148869047Y-86309523D01*
X148773809Y-86404761D01*
X148630952Y-86452380D01*
X148535714Y-86452380D01*
X149440476Y-86452380D02*
X149630952Y-86452380D01*
X149726190Y-86404761D01*
X149773809Y-86357142D01*
X149869047Y-86214285D01*
X149916666Y-86023809D01*
X149916666Y-85642857D01*
X149869047Y-85547619D01*
X149821428Y-85500000D01*
X149726190Y-85452380D01*
X149535714Y-85452380D01*
X149440476Y-85500000D01*
X149392857Y-85547619D01*
X149345238Y-85642857D01*
X149345238Y-85880952D01*
X149392857Y-85976190D01*
X149440476Y-86023809D01*
X149535714Y-86071428D01*
X149726190Y-86071428D01*
X149821428Y-86023809D01*
X149869047Y-85976190D01*
X149916666Y-85880952D01*
D13*
X167833333Y-126452380D02*
X167904761Y-126476190D01*
X168023809Y-126476190D01*
X168071428Y-126452380D01*
X168095238Y-126428571D01*
X168119047Y-126380952D01*
X168119047Y-126333333D01*
X168095238Y-126285714D01*
X168071428Y-126261904D01*
X168023809Y-126238095D01*
X167928571Y-126214285D01*
X167880952Y-126190476D01*
X167857142Y-126166666D01*
X167833333Y-126119047D01*
X167833333Y-126071428D01*
X167857142Y-126023809D01*
X167880952Y-126000000D01*
X167928571Y-125976190D01*
X168047619Y-125976190D01*
X168119047Y-126000000D01*
X168285714Y-125976190D02*
X168404761Y-126476190D01*
X168500000Y-126119047D01*
X168595238Y-126476190D01*
X168714285Y-125976190D01*
X169166666Y-126476190D02*
X168880952Y-126476190D01*
X169023809Y-126476190D02*
X169023809Y-125976190D01*
X168976190Y-126047619D01*
X168928571Y-126095238D01*
X168880952Y-126119047D01*
D12*
X131782380Y-124666666D02*
X131306190Y-125000000D01*
X131782380Y-125238095D02*
X130782380Y-125238095D01*
X130782380Y-124857142D01*
X130830000Y-124761904D01*
X130877619Y-124714285D01*
X130972857Y-124666666D01*
X131115714Y-124666666D01*
X131210952Y-124714285D01*
X131258571Y-124761904D01*
X131306190Y-124857142D01*
X131306190Y-125238095D01*
X131782380Y-124190476D02*
X131782380Y-124000000D01*
X131734761Y-123904761D01*
X131687142Y-123857142D01*
X131544285Y-123761904D01*
X131353809Y-123714285D01*
X130972857Y-123714285D01*
X130877619Y-123761904D01*
X130830000Y-123809523D01*
X130782380Y-123904761D01*
X130782380Y-124095238D01*
X130830000Y-124190476D01*
X130877619Y-124238095D01*
X130972857Y-124285714D01*
X131210952Y-124285714D01*
X131306190Y-124238095D01*
X131353809Y-124190476D01*
X131401428Y-124095238D01*
X131401428Y-123904761D01*
X131353809Y-123809523D01*
X131306190Y-123761904D01*
X131210952Y-123714285D01*
X158416666Y-91952380D02*
X158416666Y-92666666D01*
X158369047Y-92809523D01*
X158273809Y-92904761D01*
X158130952Y-92952380D01*
X158035714Y-92952380D01*
X158892857Y-92952380D02*
X158892857Y-91952380D01*
X159273809Y-91952380D01*
X159369047Y-92000000D01*
X159416666Y-92047619D01*
X159464285Y-92142857D01*
X159464285Y-92285714D01*
X159416666Y-92380952D01*
X159369047Y-92428571D01*
X159273809Y-92476190D01*
X158892857Y-92476190D01*
X160416666Y-92952380D02*
X159845238Y-92952380D01*
X160130952Y-92952380D02*
X160130952Y-91952380D01*
X160035714Y-92095238D01*
X159940476Y-92190476D01*
X159845238Y-92238095D01*
X140583333Y-92857142D02*
X140535714Y-92904761D01*
X140392857Y-92952380D01*
X140297619Y-92952380D01*
X140154761Y-92904761D01*
X140059523Y-92809523D01*
X140011904Y-92714285D01*
X139964285Y-92523809D01*
X139964285Y-92380952D01*
X140011904Y-92190476D01*
X140059523Y-92095238D01*
X140154761Y-92000000D01*
X140297619Y-91952380D01*
X140392857Y-91952380D01*
X140535714Y-92000000D01*
X140583333Y-92047619D01*
X141440476Y-91952380D02*
X141250000Y-91952380D01*
X141154761Y-92000000D01*
X141107142Y-92047619D01*
X141011904Y-92190476D01*
X140964285Y-92380952D01*
X140964285Y-92761904D01*
X141011904Y-92857142D01*
X141059523Y-92904761D01*
X141154761Y-92952380D01*
X141345238Y-92952380D01*
X141440476Y-92904761D01*
X141488095Y-92857142D01*
X141535714Y-92761904D01*
X141535714Y-92523809D01*
X141488095Y-92428571D01*
X141440476Y-92380952D01*
X141345238Y-92333333D01*
X141154761Y-92333333D01*
X141059523Y-92380952D01*
X141011904Y-92428571D01*
X140964285Y-92523809D01*
X131782380Y-122392857D02*
X131306190Y-122726190D01*
X131782380Y-122964285D02*
X130782380Y-122964285D01*
X130782380Y-122583333D01*
X130830000Y-122488095D01*
X130877619Y-122440476D01*
X130972857Y-122392857D01*
X131115714Y-122392857D01*
X131210952Y-122440476D01*
X131258571Y-122488095D01*
X131306190Y-122583333D01*
X131306190Y-122964285D01*
X131782380Y-121440476D02*
X131782380Y-122011904D01*
X131782380Y-121726190D02*
X130782380Y-121726190D01*
X130925238Y-121821428D01*
X131020476Y-121916666D01*
X131068095Y-122011904D01*
X130782380Y-120821428D02*
X130782380Y-120726190D01*
X130830000Y-120630952D01*
X130877619Y-120583333D01*
X130972857Y-120535714D01*
X131163333Y-120488095D01*
X131401428Y-120488095D01*
X131591904Y-120535714D01*
X131687142Y-120583333D01*
X131734761Y-120630952D01*
X131782380Y-120726190D01*
X131782380Y-120821428D01*
X131734761Y-120916666D01*
X131687142Y-120964285D01*
X131591904Y-121011904D01*
X131401428Y-121059523D01*
X131163333Y-121059523D01*
X130972857Y-121011904D01*
X130877619Y-120964285D01*
X130830000Y-120916666D01*
X130782380Y-120821428D01*
X156583333Y-89607142D02*
X156535714Y-89654761D01*
X156392857Y-89702380D01*
X156297619Y-89702380D01*
X156154761Y-89654761D01*
X156059523Y-89559523D01*
X156011904Y-89464285D01*
X155964285Y-89273809D01*
X155964285Y-89130952D01*
X156011904Y-88940476D01*
X156059523Y-88845238D01*
X156154761Y-88750000D01*
X156297619Y-88702380D01*
X156392857Y-88702380D01*
X156535714Y-88750000D01*
X156583333Y-88797619D01*
X156916666Y-88702380D02*
X157535714Y-88702380D01*
X157202380Y-89083333D01*
X157345238Y-89083333D01*
X157440476Y-89130952D01*
X157488095Y-89178571D01*
X157535714Y-89273809D01*
X157535714Y-89511904D01*
X157488095Y-89607142D01*
X157440476Y-89654761D01*
X157345238Y-89702380D01*
X157059523Y-89702380D01*
X156964285Y-89654761D01*
X156916666Y-89607142D01*
X177607142Y-121058830D02*
X177654761Y-121106449D01*
X177702380Y-121249306D01*
X177702380Y-121344544D01*
X177654761Y-121487402D01*
X177559523Y-121582640D01*
X177464285Y-121630259D01*
X177273809Y-121677878D01*
X177130952Y-121677878D01*
X176940476Y-121630259D01*
X176845238Y-121582640D01*
X176750000Y-121487402D01*
X176702380Y-121344544D01*
X176702380Y-121249306D01*
X176750000Y-121106449D01*
X176797619Y-121058830D01*
X176797619Y-120677878D02*
X176750000Y-120630259D01*
X176702380Y-120535021D01*
X176702380Y-120296925D01*
X176750000Y-120201687D01*
X176797619Y-120154068D01*
X176892857Y-120106449D01*
X176988095Y-120106449D01*
X177130952Y-120154068D01*
X177702380Y-120725497D01*
X177702380Y-120106449D01*
X134452380Y-93238095D02*
X133452380Y-93238095D01*
X133452380Y-93000000D01*
X133500000Y-92857142D01*
X133595238Y-92761904D01*
X133690476Y-92714285D01*
X133880952Y-92666666D01*
X134023809Y-92666666D01*
X134214285Y-92714285D01*
X134309523Y-92761904D01*
X134404761Y-92857142D01*
X134452380Y-93000000D01*
X134452380Y-93238095D01*
X133785714Y-91809523D02*
X134452380Y-91809523D01*
X133404761Y-92047619D02*
X134119047Y-92285714D01*
X134119047Y-91666666D01*
X171773809Y-86952380D02*
X171773809Y-85952380D01*
X172821428Y-86857142D02*
X172773809Y-86904761D01*
X172630952Y-86952380D01*
X172535714Y-86952380D01*
X172392857Y-86904761D01*
X172297619Y-86809523D01*
X172250000Y-86714285D01*
X172202380Y-86523809D01*
X172202380Y-86380952D01*
X172250000Y-86190476D01*
X172297619Y-86095238D01*
X172392857Y-86000000D01*
X172535714Y-85952380D01*
X172630952Y-85952380D01*
X172773809Y-86000000D01*
X172821428Y-86047619D01*
X173773809Y-86952380D02*
X173202380Y-86952380D01*
X173488095Y-86952380D02*
X173488095Y-85952380D01*
X173392857Y-86095238D01*
X173297619Y-86190476D01*
X173202380Y-86238095D01*
X150952380Y-129892857D02*
X150476190Y-130226190D01*
X150952380Y-130464285D02*
X149952380Y-130464285D01*
X149952380Y-130083333D01*
X150000000Y-129988095D01*
X150047619Y-129940476D01*
X150142857Y-129892857D01*
X150285714Y-129892857D01*
X150380952Y-129940476D01*
X150428571Y-129988095D01*
X150476190Y-130083333D01*
X150476190Y-130464285D01*
X150952380Y-128940476D02*
X150952380Y-129511904D01*
X150952380Y-129226190D02*
X149952380Y-129226190D01*
X150095238Y-129321428D01*
X150190476Y-129416666D01*
X150238095Y-129511904D01*
X149952380Y-128607142D02*
X149952380Y-127940476D01*
X150952380Y-128369047D01*
X121166666Y-124177380D02*
X121166666Y-124891666D01*
X121119047Y-125034523D01*
X121023809Y-125129761D01*
X120880952Y-125177380D01*
X120785714Y-125177380D01*
X122166666Y-125177380D02*
X121595238Y-125177380D01*
X121880952Y-125177380D02*
X121880952Y-124177380D01*
X121785714Y-124320238D01*
X121690476Y-124415476D01*
X121595238Y-124463095D01*
X150107142Y-126702380D02*
X149773809Y-126226190D01*
X149535714Y-126702380D02*
X149535714Y-125702380D01*
X149916666Y-125702380D01*
X150011904Y-125750000D01*
X150059523Y-125797619D01*
X150107142Y-125892857D01*
X150107142Y-126035714D01*
X150059523Y-126130952D01*
X150011904Y-126178571D01*
X149916666Y-126226190D01*
X149535714Y-126226190D01*
X151059523Y-126702380D02*
X150488095Y-126702380D01*
X150773809Y-126702380D02*
X150773809Y-125702380D01*
X150678571Y-125845238D01*
X150583333Y-125940476D01*
X150488095Y-125988095D01*
X151392857Y-125702380D02*
X152011904Y-125702380D01*
X151678571Y-126083333D01*
X151821428Y-126083333D01*
X151916666Y-126130952D01*
X151964285Y-126178571D01*
X152011904Y-126273809D01*
X152011904Y-126511904D01*
X151964285Y-126607142D01*
X151916666Y-126654761D01*
X151821428Y-126702380D01*
X151535714Y-126702380D01*
X151440476Y-126654761D01*
X151392857Y-126607142D01*
X150261904Y-123952380D02*
X150261904Y-122952380D01*
X150500000Y-122952380D01*
X150642857Y-123000000D01*
X150738095Y-123095238D01*
X150785714Y-123190476D01*
X150833333Y-123380952D01*
X150833333Y-123523809D01*
X150785714Y-123714285D01*
X150738095Y-123809523D01*
X150642857Y-123904761D01*
X150500000Y-123952380D01*
X150261904Y-123952380D01*
X151166666Y-122952380D02*
X151785714Y-122952380D01*
X151452380Y-123333333D01*
X151595238Y-123333333D01*
X151690476Y-123380952D01*
X151738095Y-123428571D01*
X151785714Y-123523809D01*
X151785714Y-123761904D01*
X151738095Y-123857142D01*
X151690476Y-123904761D01*
X151595238Y-123952380D01*
X151309523Y-123952380D01*
X151214285Y-123904761D01*
X151166666Y-123857142D01*
X123657142Y-110792857D02*
X123704761Y-110840476D01*
X123752380Y-110983333D01*
X123752380Y-111078571D01*
X123704761Y-111221428D01*
X123609523Y-111316666D01*
X123514285Y-111364285D01*
X123323809Y-111411904D01*
X123180952Y-111411904D01*
X122990476Y-111364285D01*
X122895238Y-111316666D01*
X122800000Y-111221428D01*
X122752380Y-111078571D01*
X122752380Y-110983333D01*
X122800000Y-110840476D01*
X122847619Y-110792857D01*
X123752380Y-109840476D02*
X123752380Y-110411904D01*
X123752380Y-110126190D02*
X122752380Y-110126190D01*
X122895238Y-110221428D01*
X122990476Y-110316666D01*
X123038095Y-110411904D01*
X122752380Y-109221428D02*
X122752380Y-109126190D01*
X122800000Y-109030952D01*
X122847619Y-108983333D01*
X122942857Y-108935714D01*
X123133333Y-108888095D01*
X123371428Y-108888095D01*
X123561904Y-108935714D01*
X123657142Y-108983333D01*
X123704761Y-109030952D01*
X123752380Y-109126190D01*
X123752380Y-109221428D01*
X123704761Y-109316666D01*
X123657142Y-109364285D01*
X123561904Y-109411904D01*
X123371428Y-109459523D01*
X123133333Y-109459523D01*
X122942857Y-109411904D01*
X122847619Y-109364285D01*
X122800000Y-109316666D01*
X122752380Y-109221428D01*
X172483333Y-99882142D02*
X172435714Y-99929761D01*
X172292857Y-99977380D01*
X172197619Y-99977380D01*
X172054761Y-99929761D01*
X171959523Y-99834523D01*
X171911904Y-99739285D01*
X171864285Y-99548809D01*
X171864285Y-99405952D01*
X171911904Y-99215476D01*
X171959523Y-99120238D01*
X172054761Y-99025000D01*
X172197619Y-98977380D01*
X172292857Y-98977380D01*
X172435714Y-99025000D01*
X172483333Y-99072619D01*
X173340476Y-99310714D02*
X173340476Y-99977380D01*
X173102380Y-98929761D02*
X172864285Y-99644047D01*
X173483333Y-99644047D01*
X157738095Y-87952380D02*
X157738095Y-88761904D01*
X157785714Y-88857142D01*
X157833333Y-88904761D01*
X157928571Y-88952380D01*
X158119047Y-88952380D01*
X158214285Y-88904761D01*
X158261904Y-88857142D01*
X158309523Y-88761904D01*
X158309523Y-87952380D01*
X159261904Y-87952380D02*
X158785714Y-87952380D01*
X158738095Y-88428571D01*
X158785714Y-88380952D01*
X158880952Y-88333333D01*
X159119047Y-88333333D01*
X159214285Y-88380952D01*
X159261904Y-88428571D01*
X159309523Y-88523809D01*
X159309523Y-88761904D01*
X159261904Y-88857142D01*
X159214285Y-88904761D01*
X159119047Y-88952380D01*
X158880952Y-88952380D01*
X158785714Y-88904761D01*
X158738095Y-88857142D01*
X160357142Y-132202380D02*
X160023809Y-131726190D01*
X159785714Y-132202380D02*
X159785714Y-131202380D01*
X160166666Y-131202380D01*
X160261904Y-131250000D01*
X160309523Y-131297619D01*
X160357142Y-131392857D01*
X160357142Y-131535714D01*
X160309523Y-131630952D01*
X160261904Y-131678571D01*
X160166666Y-131726190D01*
X159785714Y-131726190D01*
X161309523Y-132202380D02*
X160738095Y-132202380D01*
X161023809Y-132202380D02*
X161023809Y-131202380D01*
X160928571Y-131345238D01*
X160833333Y-131440476D01*
X160738095Y-131488095D01*
X161785714Y-132202380D02*
X161976190Y-132202380D01*
X162071428Y-132154761D01*
X162119047Y-132107142D01*
X162214285Y-131964285D01*
X162261904Y-131773809D01*
X162261904Y-131392857D01*
X162214285Y-131297619D01*
X162166666Y-131250000D01*
X162071428Y-131202380D01*
X161880952Y-131202380D01*
X161785714Y-131250000D01*
X161738095Y-131297619D01*
X161690476Y-131392857D01*
X161690476Y-131630952D01*
X161738095Y-131726190D01*
X161785714Y-131773809D01*
X161880952Y-131821428D01*
X162071428Y-131821428D01*
X162166666Y-131773809D01*
X162214285Y-131726190D01*
X162261904Y-131630952D01*
X129282380Y-122392857D02*
X128806190Y-122726190D01*
X129282380Y-122964285D02*
X128282380Y-122964285D01*
X128282380Y-122583333D01*
X128330000Y-122488095D01*
X128377619Y-122440476D01*
X128472857Y-122392857D01*
X128615714Y-122392857D01*
X128710952Y-122440476D01*
X128758571Y-122488095D01*
X128806190Y-122583333D01*
X128806190Y-122964285D01*
X128377619Y-122011904D02*
X128330000Y-121964285D01*
X128282380Y-121869047D01*
X128282380Y-121630952D01*
X128330000Y-121535714D01*
X128377619Y-121488095D01*
X128472857Y-121440476D01*
X128568095Y-121440476D01*
X128710952Y-121488095D01*
X129282380Y-122059523D01*
X129282380Y-121440476D01*
X128377619Y-121059523D02*
X128330000Y-121011904D01*
X128282380Y-120916666D01*
X128282380Y-120678571D01*
X128330000Y-120583333D01*
X128377619Y-120535714D01*
X128472857Y-120488095D01*
X128568095Y-120488095D01*
X128710952Y-120535714D01*
X129282380Y-121107142D01*
X129282380Y-120488095D01*
X150107142Y-131416666D02*
X150154761Y-131464285D01*
X150202380Y-131607142D01*
X150202380Y-131702380D01*
X150154761Y-131845238D01*
X150059523Y-131940476D01*
X149964285Y-131988095D01*
X149773809Y-132035714D01*
X149630952Y-132035714D01*
X149440476Y-131988095D01*
X149345238Y-131940476D01*
X149250000Y-131845238D01*
X149202380Y-131702380D01*
X149202380Y-131607142D01*
X149250000Y-131464285D01*
X149297619Y-131416666D01*
X149202380Y-131083333D02*
X149202380Y-130416666D01*
X150202380Y-130845238D01*
X158986904Y-124602380D02*
X158986904Y-123602380D01*
X159225000Y-123602380D01*
X159367857Y-123650000D01*
X159463095Y-123745238D01*
X159510714Y-123840476D01*
X159558333Y-124030952D01*
X159558333Y-124173809D01*
X159510714Y-124364285D01*
X159463095Y-124459523D01*
X159367857Y-124554761D01*
X159225000Y-124602380D01*
X158986904Y-124602380D01*
X160463095Y-123602380D02*
X159986904Y-123602380D01*
X159939285Y-124078571D01*
X159986904Y-124030952D01*
X160082142Y-123983333D01*
X160320238Y-123983333D01*
X160415476Y-124030952D01*
X160463095Y-124078571D01*
X160510714Y-124173809D01*
X160510714Y-124411904D01*
X160463095Y-124507142D01*
X160415476Y-124554761D01*
X160320238Y-124602380D01*
X160082142Y-124602380D01*
X159986904Y-124554761D01*
X159939285Y-124507142D01*
X163421666Y-131057380D02*
X163421666Y-131771666D01*
X163374047Y-131914523D01*
X163278809Y-132009761D01*
X163135952Y-132057380D01*
X163040714Y-132057380D01*
X164326428Y-131390714D02*
X164326428Y-132057380D01*
X164088333Y-131009761D02*
X163850238Y-131724047D01*
X164469285Y-131724047D01*
X158333333Y-128357142D02*
X158285714Y-128404761D01*
X158142857Y-128452380D01*
X158047619Y-128452380D01*
X157904761Y-128404761D01*
X157809523Y-128309523D01*
X157761904Y-128214285D01*
X157714285Y-128023809D01*
X157714285Y-127880952D01*
X157761904Y-127690476D01*
X157809523Y-127595238D01*
X157904761Y-127500000D01*
X158047619Y-127452380D01*
X158142857Y-127452380D01*
X158285714Y-127500000D01*
X158333333Y-127547619D01*
X158809523Y-128452380D02*
X159000000Y-128452380D01*
X159095238Y-128404761D01*
X159142857Y-128357142D01*
X159238095Y-128214285D01*
X159285714Y-128023809D01*
X159285714Y-127642857D01*
X159238095Y-127547619D01*
X159190476Y-127500000D01*
X159095238Y-127452380D01*
X158904761Y-127452380D01*
X158809523Y-127500000D01*
X158761904Y-127547619D01*
X158714285Y-127642857D01*
X158714285Y-127880952D01*
X158761904Y-127976190D01*
X158809523Y-128023809D01*
X158904761Y-128071428D01*
X159095238Y-128071428D01*
X159190476Y-128023809D01*
X159238095Y-127976190D01*
X159285714Y-127880952D01*
D14*
X131750000Y-79550000D02*
X131750000Y-86850000D01*
X124250000Y-79550000D02*
X131750000Y-79550000D01*
X131750000Y-86850000D02*
X124250000Y-86850000D01*
X124250000Y-86850000D02*
X124250000Y-79550000D01*
D15*
X123450000Y-83250000D02*
G75*
G03*
X123450000Y-83250000I-50000J0D01*
G01*
D13*
X166805000Y-99096359D02*
X166805000Y-99403641D01*
X166045000Y-99096359D02*
X166045000Y-99403641D01*
X128096359Y-96170000D02*
X128403641Y-96170000D01*
X128096359Y-96930000D02*
X128403641Y-96930000D01*
X154022936Y-80735000D02*
X154477064Y-80735000D01*
X154022936Y-79265000D02*
X154477064Y-79265000D01*
X158653641Y-129870000D02*
X158346359Y-129870000D01*
X158653641Y-130630000D02*
X158346359Y-130630000D01*
X154610000Y-129357836D02*
X154610000Y-129142164D01*
X153890000Y-129357836D02*
X153890000Y-129142164D01*
X150620000Y-84596359D02*
X150620000Y-84903641D01*
X151380000Y-84596359D02*
X151380000Y-84903641D01*
X123796248Y-88580000D02*
X128203752Y-88580000D01*
X123796248Y-93920000D02*
X128203752Y-93920000D01*
X148550000Y-91150000D02*
X148550000Y-90550000D01*
X149250000Y-89850000D02*
X150650000Y-89850000D01*
X150650000Y-91850000D02*
X149250000Y-91850000D01*
X151350000Y-90550000D02*
X151350000Y-91150000D01*
X148550000Y-91150000D02*
G75*
G03*
X149250000Y-91850000I700000J0D01*
G01*
X150650000Y-91850000D02*
G75*
G03*
X151350000Y-91150000I1J699999D01*
G01*
X149250000Y-89850000D02*
G75*
G03*
X148550000Y-90550000I0J-700000D01*
G01*
X151350000Y-90550000D02*
G75*
G03*
X150650000Y-89850000I-699999J1D01*
G01*
X130380000Y-124653641D02*
X130380000Y-124346359D01*
X129620000Y-124653641D02*
X129620000Y-124346359D01*
X163772936Y-87735000D02*
X164227064Y-87735000D01*
X163772936Y-86265000D02*
X164227064Y-86265000D01*
X139250000Y-91000000D02*
X141700000Y-91000000D01*
X141370000Y-90670000D02*
X133520000Y-90670000D01*
X133520000Y-78730000D02*
X141370000Y-78730000D01*
X141370000Y-78730000D02*
X141370000Y-90670000D01*
X133520000Y-90670000D02*
X133520000Y-78730000D01*
X141700000Y-91000000D02*
X141700000Y-88670000D01*
X119550000Y-94240000D02*
X119550000Y-92750000D01*
X115490000Y-92750000D02*
X113750000Y-92750000D01*
X113750000Y-116050000D02*
X115490000Y-116050000D01*
X119550000Y-116050000D02*
X118210000Y-116050000D01*
X119550000Y-92750000D02*
X118210000Y-92750000D01*
X113750000Y-92750000D02*
X113750000Y-116050000D01*
X119550000Y-94240000D02*
X120750000Y-94240000D01*
X119550000Y-114560000D02*
X119550000Y-116050000D01*
X136460000Y-97382836D02*
X136460000Y-97167164D01*
X135740000Y-97382836D02*
X135740000Y-97167164D01*
X124096359Y-95045000D02*
X124403641Y-95045000D01*
X124096359Y-95805000D02*
X124403641Y-95805000D01*
X133550000Y-98360000D02*
X135225000Y-98360000D01*
X133550000Y-95240000D02*
X134200000Y-95240000D01*
X133550000Y-98360000D02*
X132900000Y-98360000D01*
X133550000Y-95240000D02*
X132900000Y-95240000D01*
X148110000Y-129142164D02*
X148110000Y-129357836D01*
X147390000Y-129142164D02*
X147390000Y-129357836D01*
X147942500Y-124853641D02*
X147942500Y-124546359D01*
X147182500Y-124853641D02*
X147182500Y-124546359D01*
X126403641Y-95570000D02*
X126096359Y-95570000D01*
X126403641Y-96330000D02*
X126096359Y-96330000D01*
X154050000Y-93500000D02*
X155450000Y-93500000D01*
X155450000Y-95500000D02*
X154050000Y-95500000D01*
X153350000Y-94800000D02*
X153350000Y-94200000D01*
X156150000Y-94200000D02*
X156150000Y-94800000D01*
X154050000Y-93500000D02*
G75*
G03*
X153350000Y-94200000I0J-700000D01*
G01*
X156150000Y-94200000D02*
G75*
G03*
X155450000Y-93500000I-699999J1D01*
G01*
X155450000Y-95500000D02*
G75*
G03*
X156150000Y-94800000I1J699999D01*
G01*
X153350000Y-94800000D02*
G75*
G03*
X154050000Y-95500000I700000J0D01*
G01*
X167545000Y-99071359D02*
X167545000Y-99378641D01*
X168305000Y-99071359D02*
X168305000Y-99378641D01*
X141500000Y-98705000D02*
X140360000Y-98705000D01*
X140360000Y-94215000D02*
X140360000Y-94445000D01*
X137640000Y-95525000D02*
X137640000Y-94215000D01*
X137640000Y-94215000D02*
X140360000Y-94215000D01*
X137640000Y-98935000D02*
X137640000Y-97625000D01*
X140360000Y-98935000D02*
X140360000Y-98705000D01*
X140360000Y-98935000D02*
X137640000Y-98935000D01*
X157153641Y-126880000D02*
X156846359Y-126880000D01*
X157153641Y-126120000D02*
X156846359Y-126120000D01*
X161440000Y-92000000D02*
X161440000Y-90050000D01*
X166560000Y-92000000D02*
X166560000Y-93950000D01*
X166560000Y-92000000D02*
X166560000Y-90050000D01*
X161440000Y-92000000D02*
X161440000Y-95450000D01*
X130453641Y-97580000D02*
X130146359Y-97580000D01*
X130453641Y-96820000D02*
X130146359Y-96820000D01*
X172913748Y-98385000D02*
X174336252Y-98385000D01*
X172913748Y-96565000D02*
X174336252Y-96565000D01*
X144500000Y-125560000D02*
X143850000Y-125560000D01*
X144500000Y-125560000D02*
X146175000Y-125560000D01*
X144500000Y-122440000D02*
X145150000Y-122440000D01*
X144500000Y-122440000D02*
X143850000Y-122440000D01*
X155153641Y-130370000D02*
X154846359Y-130370000D01*
X155153641Y-131130000D02*
X154846359Y-131130000D01*
X175630000Y-123153641D02*
X175630000Y-122846359D01*
X174870000Y-123153641D02*
X174870000Y-122846359D01*
X153750000Y-123190000D02*
X154400000Y-123190000D01*
X153750000Y-123190000D02*
X153100000Y-123190000D01*
X153750000Y-126310000D02*
X153100000Y-126310000D01*
X153750000Y-126310000D02*
X155425000Y-126310000D01*
X149080000Y-113670000D02*
X149080000Y-115000000D01*
X126100000Y-113670000D02*
X126100000Y-116330000D01*
X147750000Y-113670000D02*
X149080000Y-113670000D01*
X146480000Y-116330000D02*
X126100000Y-116330000D01*
X146480000Y-113670000D02*
X126100000Y-113670000D01*
X146480000Y-113670000D02*
X146480000Y-116330000D01*
X183100000Y-100875000D02*
X183100000Y-119130000D01*
X176020000Y-100890000D02*
X176020000Y-100500000D01*
X151850000Y-119120000D02*
X151850000Y-117460000D01*
X152210000Y-100880000D02*
X151850000Y-100880000D01*
X176680000Y-119130000D02*
X183100000Y-119130000D01*
X152110000Y-119120000D02*
X151850000Y-119120000D01*
X151850000Y-100880000D02*
X151850000Y-102540000D01*
X176020000Y-100890000D02*
X183100000Y-100875000D01*
X145500000Y-78775000D02*
X145500000Y-79525000D01*
X146500000Y-79525000D02*
X146500000Y-78775000D01*
X142950000Y-81025000D02*
X142950000Y-83975000D01*
X142200000Y-79525000D02*
X144000000Y-79525000D01*
X149800000Y-78775000D02*
X148000000Y-78775000D01*
X142190000Y-84735000D02*
X149810000Y-84735000D01*
X144000000Y-79525000D02*
X144000000Y-78775000D01*
X149810000Y-84735000D02*
X149810000Y-78765000D01*
X141900000Y-78475000D02*
X141900000Y-79725000D01*
X149050000Y-83975000D02*
X146000000Y-83975000D01*
X148000000Y-79525000D02*
X149800000Y-79525000D01*
X146500000Y-78775000D02*
X145500000Y-78775000D01*
X148000000Y-78775000D02*
X148000000Y-79525000D01*
X142950000Y-83975000D02*
X146000000Y-83975000D01*
X142200000Y-78775000D02*
X142200000Y-79525000D01*
X145500000Y-79525000D02*
X146500000Y-79525000D01*
X143150000Y-78475000D02*
X141900000Y-78475000D01*
X149800000Y-81025000D02*
X149050000Y-81025000D01*
X149810000Y-78765000D02*
X142190000Y-78765000D01*
X144000000Y-78775000D02*
X142200000Y-78775000D01*
X149050000Y-81025000D02*
X149050000Y-83975000D01*
X142200000Y-81025000D02*
X142950000Y-81025000D01*
X142190000Y-78765000D02*
X142190000Y-84735000D01*
X149800000Y-79525000D02*
X149800000Y-78775000D01*
D15*
X173550000Y-123750000D02*
X173550000Y-121750000D01*
X173550000Y-125300000D02*
X168450000Y-125300000D01*
X173550000Y-120200000D02*
X168450000Y-120200000D01*
X168450000Y-123750000D02*
X168450000Y-121750000D01*
D13*
X132120000Y-124653641D02*
X132120000Y-124346359D01*
X132880000Y-124653641D02*
X132880000Y-124346359D01*
X160650000Y-94200000D02*
X160650000Y-94800000D01*
X158550000Y-93500000D02*
X159950000Y-93500000D01*
X157850000Y-94800000D02*
X157850000Y-94200000D01*
X159950000Y-95500000D02*
X158550000Y-95500000D01*
X158550000Y-93500000D02*
G75*
G03*
X157850000Y-94200000I0J-700000D01*
G01*
X160650000Y-94200000D02*
G75*
G03*
X159950000Y-93500000I-699999J1D01*
G01*
X157850000Y-94800000D02*
G75*
G03*
X158550000Y-95500000I700000J0D01*
G01*
X159950000Y-95500000D02*
G75*
G03*
X160650000Y-94800000I1J699999D01*
G01*
X137961252Y-91590000D02*
X136538748Y-91590000D01*
X137961252Y-93410000D02*
X136538748Y-93410000D01*
X132120000Y-121903641D02*
X132120000Y-121596359D01*
X132880000Y-121903641D02*
X132880000Y-121596359D01*
X154607836Y-88890000D02*
X154392164Y-88890000D01*
X154607836Y-89610000D02*
X154392164Y-89610000D01*
X174890000Y-121107836D02*
X174890000Y-120892164D01*
X175610000Y-121107836D02*
X175610000Y-120892164D01*
X131000000Y-94250000D02*
X131000000Y-90350000D01*
X133000000Y-94250000D02*
X133000000Y-90350000D01*
X131000000Y-94250000D02*
X133000000Y-94250000D01*
X169250000Y-85690000D02*
X169900000Y-85690000D01*
X169250000Y-85690000D02*
X167575000Y-85690000D01*
X169250000Y-88810000D02*
X168600000Y-88810000D01*
X169250000Y-88810000D02*
X169900000Y-88810000D01*
X158650000Y-78500000D02*
X157400000Y-78500000D01*
X157700000Y-78800000D02*
X157700000Y-79550000D01*
X167050000Y-84000000D02*
X162750000Y-84000000D01*
X167050000Y-81050000D02*
X167050000Y-84000000D01*
X157690000Y-78790000D02*
X157690000Y-84760000D01*
X159500000Y-78800000D02*
X157700000Y-78800000D01*
X157690000Y-84760000D02*
X167810000Y-84760000D01*
X166000000Y-78800000D02*
X166000000Y-79550000D01*
X167810000Y-78790000D02*
X157690000Y-78790000D01*
X167800000Y-78800000D02*
X166000000Y-78800000D01*
X159500000Y-79550000D02*
X159500000Y-78800000D01*
X164500000Y-78800000D02*
X161000000Y-78800000D01*
X158450000Y-81050000D02*
X158450000Y-84000000D01*
X167800000Y-81050000D02*
X167050000Y-81050000D01*
X167800000Y-79550000D02*
X167800000Y-78800000D01*
X161000000Y-78800000D02*
X161000000Y-79550000D01*
X157400000Y-78500000D02*
X157400000Y-79750000D01*
X167810000Y-84760000D02*
X167810000Y-78790000D01*
X157700000Y-79550000D02*
X159500000Y-79550000D01*
X166000000Y-79550000D02*
X167800000Y-79550000D01*
X164500000Y-79550000D02*
X164500000Y-78800000D01*
X157700000Y-81050000D02*
X158450000Y-81050000D01*
X161000000Y-79550000D02*
X164500000Y-79550000D01*
X158450000Y-84000000D02*
X162750000Y-84000000D01*
X152130000Y-129096359D02*
X152130000Y-129403641D01*
X151370000Y-129096359D02*
X151370000Y-129403641D01*
X120940000Y-132210000D02*
X146060000Y-132210000D01*
X120950000Y-129950000D02*
X121700000Y-129950000D01*
X146050000Y-129950000D02*
X145300000Y-129950000D01*
X120940000Y-126240000D02*
X120940000Y-132210000D01*
X146350000Y-132500000D02*
X146350000Y-131250000D01*
X120950000Y-132200000D02*
X122750000Y-132200000D01*
X146050000Y-132200000D02*
X146050000Y-131450000D01*
X146060000Y-126240000D02*
X120940000Y-126240000D01*
X124250000Y-131450000D02*
X124250000Y-132200000D01*
X142750000Y-131450000D02*
X124250000Y-131450000D01*
X144250000Y-131450000D02*
X144250000Y-132200000D01*
X144250000Y-132200000D02*
X146050000Y-132200000D01*
X124250000Y-132200000D02*
X142750000Y-132200000D01*
X120950000Y-131450000D02*
X120950000Y-132200000D01*
X146050000Y-131450000D02*
X144250000Y-131450000D01*
X145300000Y-127000000D02*
X133500000Y-127000000D01*
X145100000Y-132500000D02*
X146350000Y-132500000D01*
X145300000Y-129950000D02*
X145300000Y-127000000D01*
X121700000Y-129950000D02*
X121700000Y-127000000D01*
X122750000Y-132200000D02*
X122750000Y-131450000D01*
X142750000Y-132200000D02*
X142750000Y-131450000D01*
X121700000Y-127000000D02*
X133500000Y-127000000D01*
X146060000Y-132210000D02*
X146060000Y-126240000D01*
X122750000Y-131450000D02*
X120950000Y-131450000D01*
X148370000Y-125846359D02*
X148370000Y-126153641D01*
X149130000Y-125846359D02*
X149130000Y-126153641D01*
X149735000Y-124300000D02*
X149735000Y-122015000D01*
X148265000Y-122015000D02*
X148265000Y-124300000D01*
X149735000Y-122015000D02*
X148265000Y-122015000D01*
X124860000Y-112482836D02*
X124860000Y-112267164D01*
X124140000Y-112482836D02*
X124140000Y-112267164D01*
X174542164Y-99090000D02*
X174757836Y-99090000D01*
X174542164Y-99810000D02*
X174757836Y-99810000D01*
X157060000Y-84750000D02*
X157060000Y-86700000D01*
X151940000Y-84750000D02*
X151940000Y-82800000D01*
X151940000Y-84750000D02*
X151940000Y-88200000D01*
X157060000Y-84750000D02*
X157060000Y-82800000D01*
X158653641Y-131880000D02*
X158346359Y-131880000D01*
X158653641Y-131120000D02*
X158346359Y-131120000D01*
X129620000Y-121903641D02*
X129620000Y-121596359D01*
X130380000Y-121903641D02*
X130380000Y-121596359D01*
X148890000Y-129357836D02*
X148890000Y-129142164D01*
X149610000Y-129357836D02*
X149610000Y-129142164D01*
X156120000Y-124903641D02*
X156120000Y-124596359D01*
X156880000Y-124903641D02*
X156880000Y-124596359D01*
X157265000Y-122765000D02*
X157265000Y-125050000D01*
X158735000Y-125050000D02*
X158735000Y-122765000D01*
X158735000Y-122765000D02*
X157265000Y-122765000D01*
X166355000Y-129275000D02*
X166355000Y-130605000D01*
X166355000Y-130605000D02*
X165025000Y-130605000D01*
X163755000Y-128005000D02*
X163755000Y-130605000D01*
X166355000Y-128005000D02*
X166355000Y-122865000D01*
X161155000Y-130605000D02*
X161155000Y-122865000D01*
X166355000Y-128005000D02*
X163755000Y-128005000D01*
X163755000Y-130605000D02*
X161155000Y-130605000D01*
X166355000Y-122865000D02*
X161155000Y-122865000D01*
X150675000Y-89075000D02*
X149275000Y-89075000D01*
X148575000Y-88375000D02*
X148575000Y-87775000D01*
X151375000Y-87775000D02*
X151375000Y-88375000D01*
X149275000Y-87075000D02*
X150675000Y-87075000D01*
X150675000Y-89075000D02*
G75*
G03*
X151375000Y-88375000I1J699999D01*
G01*
X148575000Y-88375000D02*
G75*
G03*
X149275000Y-89075000I700000J0D01*
G01*
X151375000Y-87775000D02*
G75*
G03*
X150675000Y-87075000I-699999J1D01*
G01*
X149275000Y-87075000D02*
G75*
G03*
X148575000Y-87775000I0J-700000D01*
G01*
X158607836Y-128640000D02*
X158392164Y-128640000D01*
X158607836Y-129360000D02*
X158392164Y-129360000D01*
%LPC*%
D16*
X126250000Y-83250000D03*
D17*
X129750000Y-83250000D03*
D18*
X166425000Y-98740000D03*
X166425000Y-99760000D03*
D19*
X127740000Y-96550000D03*
X128760000Y-96550000D03*
D20*
X153250000Y-80000000D03*
X155250000Y-80000000D03*
D21*
X159010000Y-130250000D03*
X157990000Y-130250000D03*
D22*
X171875000Y-129700000D03*
D23*
X154250000Y-129730000D03*
X154250000Y-128770000D03*
D18*
X151000000Y-84240000D03*
X151000000Y-85260000D03*
D24*
X122612500Y-91250000D03*
X129387500Y-91250000D03*
D25*
X150600000Y-90850000D03*
D26*
X149300000Y-90850000D03*
D27*
X130000000Y-125010000D03*
X130000000Y-123990000D03*
D20*
X163000000Y-87000000D03*
X165000000Y-87000000D03*
D28*
X139250000Y-87250000D03*
D29*
X139250000Y-84710000D03*
X139250000Y-82170000D03*
D30*
X120100000Y-94650000D03*
X120100000Y-95150000D03*
X120100000Y-95650000D03*
X120100000Y-96150000D03*
X120100000Y-96650000D03*
X120100000Y-97150000D03*
X120100000Y-97650000D03*
X120100000Y-98150000D03*
X120100000Y-98650000D03*
X120100000Y-99150000D03*
X120100000Y-99650000D03*
X120100000Y-100150000D03*
X120100000Y-100650000D03*
X120100000Y-101150000D03*
X120100000Y-101650000D03*
X120100000Y-102150000D03*
X120100000Y-102650000D03*
X120100000Y-103150000D03*
X120100000Y-103650000D03*
X120100000Y-104150000D03*
X120100000Y-104650000D03*
X120100000Y-105150000D03*
X120100000Y-105650000D03*
X120100000Y-106150000D03*
X120100000Y-106650000D03*
X120100000Y-107150000D03*
X120100000Y-107650000D03*
X120100000Y-108150000D03*
X120100000Y-108650000D03*
X120100000Y-109150000D03*
X120100000Y-109650000D03*
X120100000Y-110150000D03*
X120100000Y-110650000D03*
X120100000Y-111150000D03*
X120100000Y-111650000D03*
X120100000Y-112150000D03*
X120100000Y-112650000D03*
X120100000Y-113150000D03*
X120100000Y-113650000D03*
X120100000Y-114150000D03*
D31*
X116850000Y-116050000D03*
X116850000Y-92750000D03*
D23*
X136100000Y-97755000D03*
X136100000Y-96795000D03*
D19*
X123740000Y-95425000D03*
X124760000Y-95425000D03*
D22*
X116375000Y-129800000D03*
D32*
X134487500Y-97750000D03*
X134487500Y-95850000D03*
X132612500Y-96800000D03*
D33*
X147750000Y-128770000D03*
X147750000Y-129730000D03*
D27*
X147562500Y-125210000D03*
X147562500Y-124190000D03*
D21*
X126760000Y-95950000D03*
X125740000Y-95950000D03*
D25*
X155400000Y-94500000D03*
D26*
X154100000Y-94500000D03*
D18*
X167925000Y-98715000D03*
X167925000Y-99735000D03*
D34*
X140950000Y-98075000D03*
D35*
X140862500Y-96575000D03*
D34*
X140950000Y-95075000D03*
D21*
X157510000Y-126500000D03*
X156490000Y-126500000D03*
D36*
X162095000Y-94475000D03*
X163365000Y-94475000D03*
X164635000Y-94475000D03*
X165905000Y-94475000D03*
X165905000Y-89525000D03*
X164635000Y-89525000D03*
X163365000Y-89525000D03*
X162095000Y-89525000D03*
D21*
X130810000Y-97200000D03*
X129790000Y-97200000D03*
D37*
X172150000Y-97475000D03*
X175100000Y-97475000D03*
D32*
X145437500Y-124950000D03*
X145437500Y-123050000D03*
X143562500Y-124000000D03*
D21*
X155510000Y-130750000D03*
X154490000Y-130750000D03*
D27*
X175250000Y-123510000D03*
X175250000Y-122490000D03*
D22*
X172025000Y-81350000D03*
D32*
X154687500Y-125700000D03*
X154687500Y-123800000D03*
X152812500Y-124750000D03*
D38*
X147750000Y-115000000D03*
D39*
X145210000Y-115000000D03*
X142670000Y-115000000D03*
X140130000Y-115000000D03*
X137590000Y-115000000D03*
X135050000Y-115000000D03*
X132510000Y-115000000D03*
X129970000Y-115000000D03*
X127430000Y-115000000D03*
D40*
X175425000Y-101375000D03*
X173925000Y-101375000D03*
X172425000Y-101375000D03*
X170925000Y-101375000D03*
X169425000Y-101375000D03*
X167925000Y-101375000D03*
X166425000Y-101375000D03*
X164925000Y-101375000D03*
X163425000Y-101375000D03*
X161925000Y-101375000D03*
X160425000Y-101375000D03*
X158925000Y-101375000D03*
X157425000Y-101375000D03*
X155925000Y-101375000D03*
X154425000Y-101375000D03*
X152925000Y-101375000D03*
D41*
X152175000Y-103250000D03*
X152175000Y-104750000D03*
X152175000Y-106250000D03*
X152175000Y-107750000D03*
X152175000Y-109250000D03*
X152175000Y-110750000D03*
X152175000Y-112250000D03*
X152175000Y-113750000D03*
X152175000Y-115250000D03*
X152175000Y-116750000D03*
D40*
X152825000Y-118625000D03*
X154325000Y-118625000D03*
X155825000Y-118625000D03*
X157325000Y-118625000D03*
X158825000Y-118625000D03*
X160325000Y-118625000D03*
X161825000Y-118625000D03*
X163325000Y-118625000D03*
X164825000Y-118625000D03*
X166325000Y-118625000D03*
X167825000Y-118625000D03*
X169325000Y-118625000D03*
X170825000Y-118625000D03*
X172425000Y-118625000D03*
X173925000Y-118625000D03*
X175325000Y-118625000D03*
D42*
X167385000Y-108810000D03*
D43*
X144750000Y-81225000D03*
D44*
X147250000Y-81225000D03*
D45*
X168000000Y-124625000D03*
X174000000Y-124625000D03*
X168000000Y-120875000D03*
X174000000Y-120875000D03*
D27*
X132500000Y-125010000D03*
X132500000Y-123990000D03*
D25*
X159900000Y-94500000D03*
D26*
X158600000Y-94500000D03*
D46*
X138725000Y-92500000D03*
X135775000Y-92500000D03*
D27*
X132500000Y-122260000D03*
X132500000Y-121240000D03*
D47*
X154980000Y-89250000D03*
X154020000Y-89250000D03*
D23*
X175250000Y-121480000D03*
X175250000Y-120520000D03*
D48*
X132000000Y-93650000D03*
X132000000Y-90350000D03*
D49*
X168312500Y-86300000D03*
X168312500Y-88200000D03*
X170187500Y-87250000D03*
D50*
X160250000Y-81250000D03*
D51*
X162750000Y-81250000D03*
X165250000Y-81250000D03*
D18*
X151750000Y-128740000D03*
X151750000Y-129760000D03*
D22*
X116375000Y-81200000D03*
D52*
X143500000Y-129750000D03*
D51*
X141000000Y-129750000D03*
X138500000Y-129750000D03*
X136000000Y-129750000D03*
X133500000Y-129750000D03*
X131000000Y-129750000D03*
X128500000Y-129750000D03*
X126000000Y-129750000D03*
X123500000Y-129750000D03*
D18*
X148750000Y-125490000D03*
X148750000Y-126510000D03*
D53*
X149000000Y-122712500D03*
X149000000Y-124287500D03*
D23*
X124500000Y-112855000D03*
X124500000Y-111895000D03*
D54*
X174170000Y-99450000D03*
X175130000Y-99450000D03*
D36*
X152595000Y-87225000D03*
X153865000Y-87225000D03*
X155135000Y-87225000D03*
X156405000Y-87225000D03*
X156405000Y-82275000D03*
X155135000Y-82275000D03*
X153865000Y-82275000D03*
X152595000Y-82275000D03*
D21*
X159010000Y-131500000D03*
X157990000Y-131500000D03*
D27*
X130000000Y-122260000D03*
X130000000Y-121240000D03*
D23*
X149250000Y-129730000D03*
X149250000Y-128770000D03*
D27*
X156500000Y-125260000D03*
X156500000Y-124240000D03*
D53*
X158000000Y-123462500D03*
X158000000Y-125037500D03*
D38*
X165025000Y-129275000D03*
D39*
X162485000Y-129275000D03*
X165025000Y-126735000D03*
X162485000Y-126735000D03*
X165025000Y-124195000D03*
X162485000Y-124195000D03*
D25*
X150625000Y-88075000D03*
D26*
X149325000Y-88075000D03*
D47*
X158980000Y-129000000D03*
X158020000Y-129000000D03*
M02*
