G04 #@! TF.GenerationSoftware,KiCad,Pcbnew,(6.0.6)*
G04 #@! TF.CreationDate,2022-07-25T14:20:29+02:00*
G04 #@! TF.ProjectId,UniversalControlPanel,556e6976-6572-4736-916c-436f6e74726f,rev?*
G04 #@! TF.SameCoordinates,Original*
G04 #@! TF.FileFunction,Soldermask,Top*
G04 #@! TF.FilePolarity,Negative*
%FSLAX46Y46*%
G04 Gerber Fmt 4.6, Leading zero omitted, Abs format (unit mm)*
G04 Created by KiCad (PCBNEW (6.0.6)) date 2022-07-25 14:20:29*
%MOMM*%
%LPD*%
G01*
G04 APERTURE LIST*
G04 Aperture macros list*
%AMRoundRect*
0 Rectangle with rounded corners*
0 $1 Rounding radius*
0 $2 $3 $4 $5 $6 $7 $8 $9 X,Y pos of 4 corners*
0 Add a 4 corners polygon primitive as box body*
4,1,4,$2,$3,$4,$5,$6,$7,$8,$9,$2,$3,0*
0 Add four circle primitives for the rounded corners*
1,1,$1+$1,$2,$3*
1,1,$1+$1,$4,$5*
1,1,$1+$1,$6,$7*
1,1,$1+$1,$8,$9*
0 Add four rect primitives between the rounded corners*
20,1,$1+$1,$2,$3,$4,$5,0*
20,1,$1+$1,$4,$5,$6,$7,0*
20,1,$1+$1,$6,$7,$8,$9,0*
20,1,$1+$1,$8,$9,$2,$3,0*%
%AMFreePoly0*
4,1,22,0.500000,-0.750000,0.000000,-0.750000,0.000000,-0.745033,-0.079941,-0.743568,-0.215256,-0.701293,-0.333266,-0.622738,-0.424486,-0.514219,-0.481581,-0.384460,-0.499164,-0.250000,-0.500000,-0.250000,-0.500000,0.250000,-0.499164,0.250000,-0.499963,0.256109,-0.478152,0.396186,-0.417904,0.524511,-0.324060,0.630769,-0.204165,0.706417,-0.067858,0.745374,0.000000,0.744959,0.000000,0.750000,
0.500000,0.750000,0.500000,-0.750000,0.500000,-0.750000,$1*%
%AMFreePoly1*
4,1,20,0.000000,0.744959,0.073905,0.744508,0.209726,0.703889,0.328688,0.626782,0.421226,0.519385,0.479903,0.390333,0.500000,0.250000,0.500000,-0.250000,0.499851,-0.262216,0.476331,-0.402017,0.414519,-0.529596,0.319384,-0.634700,0.198574,-0.708877,0.061801,-0.746166,0.000000,-0.745033,0.000000,-0.750000,-0.500000,-0.750000,-0.500000,0.750000,0.000000,0.750000,0.000000,0.744959,
0.000000,0.744959,$1*%
%AMFreePoly2*
4,1,9,3.862500,-0.866500,0.737500,-0.866500,0.737500,-0.450000,-0.737500,-0.450000,-0.737500,0.450000,0.737500,0.450000,0.737500,0.866500,3.862500,0.866500,3.862500,-0.866500,3.862500,-0.866500,$1*%
G04 Aperture macros list end*
%ADD10R,1.650000X1.650000*%
%ADD11C,1.650000*%
%ADD12RoundRect,0.135000X-0.185000X0.135000X-0.185000X-0.135000X0.185000X-0.135000X0.185000X0.135000X0*%
%ADD13RoundRect,0.135000X-0.135000X-0.185000X0.135000X-0.185000X0.135000X0.185000X-0.135000X0.185000X0*%
%ADD14RoundRect,0.250000X-0.350000X-0.450000X0.350000X-0.450000X0.350000X0.450000X-0.350000X0.450000X0*%
%ADD15RoundRect,0.135000X0.135000X0.185000X-0.135000X0.185000X-0.135000X-0.185000X0.135000X-0.185000X0*%
%ADD16C,3.500000*%
%ADD17RoundRect,0.140000X0.170000X-0.140000X0.170000X0.140000X-0.170000X0.140000X-0.170000X-0.140000X0*%
%ADD18RoundRect,0.250000X-0.712500X-2.475000X0.712500X-2.475000X0.712500X2.475000X-0.712500X2.475000X0*%
%ADD19FreePoly0,180.000000*%
%ADD20FreePoly1,180.000000*%
%ADD21RoundRect,0.135000X0.185000X-0.135000X0.185000X0.135000X-0.185000X0.135000X-0.185000X-0.135000X0*%
%ADD22R,2.500000X1.500000*%
%ADD23O,2.500000X1.500000*%
%ADD24R,1.300000X0.300000*%
%ADD25R,2.200000X1.800000*%
%ADD26RoundRect,0.150000X0.587500X0.150000X-0.587500X0.150000X-0.587500X-0.150000X0.587500X-0.150000X0*%
%ADD27RoundRect,0.140000X-0.170000X0.140000X-0.170000X-0.140000X0.170000X-0.140000X0.170000X0.140000X0*%
%ADD28R,1.300000X0.900000*%
%ADD29FreePoly2,180.000000*%
%ADD30RoundRect,0.150000X0.150000X-0.825000X0.150000X0.825000X-0.150000X0.825000X-0.150000X-0.825000X0*%
%ADD31RoundRect,0.250000X-0.325000X-0.650000X0.325000X-0.650000X0.325000X0.650000X-0.325000X0.650000X0*%
%ADD32R,1.700000X1.700000*%
%ADD33O,1.700000X1.700000*%
%ADD34R,0.900000X1.500000*%
%ADD35R,1.500000X0.900000*%
%ADD36R,4.100000X4.100000*%
%ADD37RoundRect,0.250000X-0.600000X-0.750000X0.600000X-0.750000X0.600000X0.750000X-0.600000X0.750000X0*%
%ADD38O,1.700000X2.000000*%
%ADD39R,1.000000X0.750000*%
%ADD40RoundRect,0.250000X0.325000X0.650000X-0.325000X0.650000X-0.325000X-0.650000X0.325000X-0.650000X0*%
%ADD41RoundRect,0.140000X0.140000X0.170000X-0.140000X0.170000X-0.140000X-0.170000X0.140000X-0.170000X0*%
%ADD42R,1.200000X0.900000*%
%ADD43RoundRect,0.150000X-0.587500X-0.150000X0.587500X-0.150000X0.587500X0.150000X-0.587500X0.150000X0*%
%ADD44RoundRect,0.250000X-0.600000X-0.725000X0.600000X-0.725000X0.600000X0.725000X-0.600000X0.725000X0*%
%ADD45O,1.700000X1.950000*%
%ADD46RoundRect,0.250000X0.600000X0.725000X-0.600000X0.725000X-0.600000X-0.725000X0.600000X-0.725000X0*%
%ADD47RoundRect,0.218750X-0.256250X0.218750X-0.256250X-0.218750X0.256250X-0.218750X0.256250X0.218750X0*%
%ADD48RoundRect,0.140000X-0.140000X-0.170000X0.140000X-0.170000X0.140000X0.170000X-0.140000X0.170000X0*%
G04 APERTURE END LIST*
D10*
X126250000Y-83250000D03*
D11*
X129750000Y-83250000D03*
D12*
X166425000Y-98740000D03*
X166425000Y-99760000D03*
D13*
X127740000Y-96550000D03*
X128760000Y-96550000D03*
D14*
X153250000Y-80000000D03*
X155250000Y-80000000D03*
D15*
X159010000Y-130250000D03*
X157990000Y-130250000D03*
D16*
X171875000Y-129700000D03*
D17*
X154250000Y-129730000D03*
X154250000Y-128770000D03*
D12*
X151000000Y-84240000D03*
X151000000Y-85260000D03*
D18*
X122612500Y-91250000D03*
X129387500Y-91250000D03*
D19*
X150600000Y-90850000D03*
D20*
X149300000Y-90850000D03*
D21*
X130000000Y-125010000D03*
X130000000Y-123990000D03*
D14*
X163000000Y-87000000D03*
X165000000Y-87000000D03*
D22*
X139250000Y-87250000D03*
D23*
X139250000Y-84710000D03*
X139250000Y-82170000D03*
D24*
X120100000Y-94650000D03*
X120100000Y-95150000D03*
X120100000Y-95650000D03*
X120100000Y-96150000D03*
X120100000Y-96650000D03*
X120100000Y-97150000D03*
X120100000Y-97650000D03*
X120100000Y-98150000D03*
X120100000Y-98650000D03*
X120100000Y-99150000D03*
X120100000Y-99650000D03*
X120100000Y-100150000D03*
X120100000Y-100650000D03*
X120100000Y-101150000D03*
X120100000Y-101650000D03*
X120100000Y-102150000D03*
X120100000Y-102650000D03*
X120100000Y-103150000D03*
X120100000Y-103650000D03*
X120100000Y-104150000D03*
X120100000Y-104650000D03*
X120100000Y-105150000D03*
X120100000Y-105650000D03*
X120100000Y-106150000D03*
X120100000Y-106650000D03*
X120100000Y-107150000D03*
X120100000Y-107650000D03*
X120100000Y-108150000D03*
X120100000Y-108650000D03*
X120100000Y-109150000D03*
X120100000Y-109650000D03*
X120100000Y-110150000D03*
X120100000Y-110650000D03*
X120100000Y-111150000D03*
X120100000Y-111650000D03*
X120100000Y-112150000D03*
X120100000Y-112650000D03*
X120100000Y-113150000D03*
X120100000Y-113650000D03*
X120100000Y-114150000D03*
D25*
X116850000Y-116050000D03*
X116850000Y-92750000D03*
D17*
X136100000Y-97755000D03*
X136100000Y-96795000D03*
D13*
X123740000Y-95425000D03*
X124760000Y-95425000D03*
D16*
X116375000Y-129800000D03*
D26*
X134487500Y-97750000D03*
X134487500Y-95850000D03*
X132612500Y-96800000D03*
D27*
X147750000Y-128770000D03*
X147750000Y-129730000D03*
D21*
X147562500Y-125210000D03*
X147562500Y-124190000D03*
D15*
X126760000Y-95950000D03*
X125740000Y-95950000D03*
D19*
X155400000Y-94500000D03*
D20*
X154100000Y-94500000D03*
D12*
X167925000Y-98715000D03*
X167925000Y-99735000D03*
D28*
X140950000Y-98075000D03*
D29*
X140862500Y-96575000D03*
D28*
X140950000Y-95075000D03*
D15*
X157510000Y-126500000D03*
X156490000Y-126500000D03*
D30*
X162095000Y-94475000D03*
X163365000Y-94475000D03*
X164635000Y-94475000D03*
X165905000Y-94475000D03*
X165905000Y-89525000D03*
X164635000Y-89525000D03*
X163365000Y-89525000D03*
X162095000Y-89525000D03*
D15*
X130810000Y-97200000D03*
X129790000Y-97200000D03*
D31*
X172150000Y-97475000D03*
X175100000Y-97475000D03*
D26*
X145437500Y-124950000D03*
X145437500Y-123050000D03*
X143562500Y-124000000D03*
D15*
X155510000Y-130750000D03*
X154490000Y-130750000D03*
D21*
X175250000Y-123510000D03*
X175250000Y-122490000D03*
D16*
X172025000Y-81350000D03*
D26*
X154687500Y-125700000D03*
X154687500Y-123800000D03*
X152812500Y-124750000D03*
D32*
X147750000Y-115000000D03*
D33*
X145210000Y-115000000D03*
X142670000Y-115000000D03*
X140130000Y-115000000D03*
X137590000Y-115000000D03*
X135050000Y-115000000D03*
X132510000Y-115000000D03*
X129970000Y-115000000D03*
X127430000Y-115000000D03*
D34*
X175425000Y-101375000D03*
X173925000Y-101375000D03*
X172425000Y-101375000D03*
X170925000Y-101375000D03*
X169425000Y-101375000D03*
X167925000Y-101375000D03*
X166425000Y-101375000D03*
X164925000Y-101375000D03*
X163425000Y-101375000D03*
X161925000Y-101375000D03*
X160425000Y-101375000D03*
X158925000Y-101375000D03*
X157425000Y-101375000D03*
X155925000Y-101375000D03*
X154425000Y-101375000D03*
X152925000Y-101375000D03*
D35*
X152175000Y-103250000D03*
X152175000Y-104750000D03*
X152175000Y-106250000D03*
X152175000Y-107750000D03*
X152175000Y-109250000D03*
X152175000Y-110750000D03*
X152175000Y-112250000D03*
X152175000Y-113750000D03*
X152175000Y-115250000D03*
X152175000Y-116750000D03*
D34*
X152825000Y-118625000D03*
X154325000Y-118625000D03*
X155825000Y-118625000D03*
X157325000Y-118625000D03*
X158825000Y-118625000D03*
X160325000Y-118625000D03*
X161825000Y-118625000D03*
X163325000Y-118625000D03*
X164825000Y-118625000D03*
X166325000Y-118625000D03*
X167825000Y-118625000D03*
X169325000Y-118625000D03*
X170825000Y-118625000D03*
X172425000Y-118625000D03*
X173925000Y-118625000D03*
X175325000Y-118625000D03*
D36*
X167385000Y-108810000D03*
D37*
X144750000Y-81225000D03*
D38*
X147250000Y-81225000D03*
D39*
X168000000Y-124625000D03*
X174000000Y-124625000D03*
X168000000Y-120875000D03*
X174000000Y-120875000D03*
D21*
X132500000Y-125010000D03*
X132500000Y-123990000D03*
D19*
X159900000Y-94500000D03*
D20*
X158600000Y-94500000D03*
D40*
X138725000Y-92500000D03*
X135775000Y-92500000D03*
D21*
X132500000Y-122260000D03*
X132500000Y-121240000D03*
D41*
X154980000Y-89250000D03*
X154020000Y-89250000D03*
D17*
X175250000Y-121480000D03*
X175250000Y-120520000D03*
D42*
X132000000Y-93650000D03*
X132000000Y-90350000D03*
D43*
X168312500Y-86300000D03*
X168312500Y-88200000D03*
X170187500Y-87250000D03*
D44*
X160250000Y-81250000D03*
D45*
X162750000Y-81250000D03*
X165250000Y-81250000D03*
D12*
X151750000Y-128740000D03*
X151750000Y-129760000D03*
D16*
X116375000Y-81200000D03*
D46*
X143500000Y-129750000D03*
D45*
X141000000Y-129750000D03*
X138500000Y-129750000D03*
X136000000Y-129750000D03*
X133500000Y-129750000D03*
X131000000Y-129750000D03*
X128500000Y-129750000D03*
X126000000Y-129750000D03*
X123500000Y-129750000D03*
D12*
X148750000Y-125490000D03*
X148750000Y-126510000D03*
D47*
X149000000Y-122712500D03*
X149000000Y-124287500D03*
D17*
X124500000Y-112855000D03*
X124500000Y-111895000D03*
D48*
X174170000Y-99450000D03*
X175130000Y-99450000D03*
D30*
X152595000Y-87225000D03*
X153865000Y-87225000D03*
X155135000Y-87225000D03*
X156405000Y-87225000D03*
X156405000Y-82275000D03*
X155135000Y-82275000D03*
X153865000Y-82275000D03*
X152595000Y-82275000D03*
D15*
X159010000Y-131500000D03*
X157990000Y-131500000D03*
D21*
X130000000Y-122260000D03*
X130000000Y-121240000D03*
D17*
X149250000Y-129730000D03*
X149250000Y-128770000D03*
D21*
X156500000Y-125260000D03*
X156500000Y-124240000D03*
D47*
X158000000Y-123462500D03*
X158000000Y-125037500D03*
D32*
X165025000Y-129275000D03*
D33*
X162485000Y-129275000D03*
X165025000Y-126735000D03*
X162485000Y-126735000D03*
X165025000Y-124195000D03*
X162485000Y-124195000D03*
D19*
X150625000Y-88075000D03*
D20*
X149325000Y-88075000D03*
D41*
X158980000Y-129000000D03*
X158020000Y-129000000D03*
M02*
